<?xml version="1.0" encoding="UTF-8"?>
<svg id="Layer_3" data-name="Layer 3" xmlns="http://www.w3.org/2000/svg" viewBox="0 0 1920 1080">
  <defs>
    <style>
      .cls-1 {
        stroke-width: 0px;
      }
    </style>
  </defs>
  <path class="cls-1" d="M1155.29,784.34c1.92.11,3.86.65,5.72-.49.38-.23.92-.25,1.38-.27,1.2-.04,2.4-.06,3.6-.02,2.09.07,4.14-.11,6.17-.67.83-.23,1.74-.25,2.61-.26,4.32-.03,8.64-.05,12.96-.03,1.45,0,2.88-.05,4.26-.51,1.24-.41,2.5-.47,3.79-.47,17.44,0,34.88,0,52.32,0,1.29,0,2.54.04,3.74.64.54.27,1.24.27,1.87.3,1.12.05,2.24.04,3.36.02,1.37-.03,2.69.15,4.01.56.9.28,1.88.37,2.82.38,2.96.05,5.92.02,8.88.03.8,0,1.54.09,2.28.53.57.34,1.36.39,2.06.4,2.24.05,4.48.03,6.72.03.8,0,1.56.05,2.28.55.42.29,1.05.34,1.59.37,1.2.06,2.4.03,3.6.04.88,0,1.72,0,2.51.57.41.29,1.05.33,1.6.36,1.04.06,2.08.03,3.12.04.88,0,1.72.01,2.51.58.41.29,1.05.32,1.6.35,1.04.06,2.08,0,3.12.05.47.02,1.06-.01,1.38.24,1.14.89,2.43.65,3.69.7,1.42.06,2.89-.22,4.17.72.23.17.61.19.92.2,1.2.02,2.38.06,3.45.78.3.2.77.16,1.16.21,1.34.16,2.69.29,4.03.48,3.31.48,6.62.96,9.92,1.5,1.57.26,3.12.67,4.68.98.78.16,1.57.26,2.35.41.54.1,1.09.2,1.61.38,2.18.73,4.3,1.72,6.68,1.52,1.05-.09,1.78.61,2.68.84.91.23,1.9.18,2.86.25,1.18,1.06,2.88.71,4.16,1.64,1.2.87,2.67,1.35,3.98,2.09,1.89,1.06,3.06,2.71,3.67,4.78.55,1.85.92,3.7.88,5.65-.05,2.79-.72,5.36-2.16,7.74-.54.9-1.2,1.65-2.25,2.04-.89.32-1.75.75-2.56,1.25-.56.34-1.09.64-1.76.65-.24,0-.54-.01-.7.12-1.47,1.15-3.19.84-4.84.82-1.93-.02-3.82.13-5.69.63-.83.22-1.73.3-2.6.31-3.76.04-7.52.08-11.28.02-2.18-.04-4.3.22-6.41.7-.54.12-1.1.27-1.65.25-2.26-.1-4.44.39-6.65.73-.53.08-1.1,0-1.64-.08-1.6-.25-3.18-.29-4.73.31-.07.03-.16.04-.23.07-1.51.71-3.2.13-4.72.65-1.54.53-3.08.81-4.7.74-1.28-.06-2.56.01-3.84-.01-1.21-.02-2.38.11-3.53.53-.59.21-1.23.36-1.86.41-1.03.08-2.05.01-2.96.74-.32.26-.91.22-1.38.24-1.04.04-2.08-.02-3.12.05-.62.04-1.32.09-1.84.38-.82.46-1.65.55-2.54.55-1.36,0-2.72,0-4.08.01-1.04,0-2.03.05-3,.61-.58.33-1.38.25-2.09.35-.62.09-1.38,0-1.85.32-.95.67-1.95.62-2.98.63-.88.01-1.76,0-2.64.03-.47.02-1.08-.06-1.4.2-1.13.88-2.41.72-3.67.74-.88.02-1.72.08-2.54.54-.52.3-1.21.34-1.84.39-.88.07-1.76,0-2.64.05-.55.04-1.14.09-1.61.33-1.95,1-4.04,1.39-6.2,1.58-.79.07-1.57.25-2.35.39-2.74.5-5.5.91-8.18,1.76-1.88.6-3.87.83-5.81,1.26-.46.1-.89.35-1.35.47-.61.16-1.23.36-1.86.38-1.05.04-2.07.07-2.97.74-.23.17-.61.17-.92.22-.24.04-.49-.02-.72.04-1.06.29-2.1.71-3.18.89-1.09.19-2.19.04-3.24.67-.56.34-1.38.28-2.09.33-.79.06-1.57.02-2.28.56-.35.27-.88.3-1.34.4-.39.08-.9-.06-1.17.15-1.26.96-2.71.8-4.13.85-.08,0-.16.01-.24.02-.51.05-.94.21-1.03.79-.09.54.24.94,1.02,1.04.72.09,1.36.3,2.02.64.6.31,1.38.34,2.08.34,2.96.04,5.92.03,8.88.02,1.21,0,2.36.07,3.51.57.7.31,1.55.35,2.34.36,2.24.05,4.48,0,6.72.04.71.01,1.51-.02,2.11.28,1.36.69,2.78.71,4.22.66,2.58-.09,5.09.33,7.58.92.54.13,1.06.33,1.6.48,2.6.71,5.29,1.04,7.88,1.85,1.24.39,2.7.1,4.06.1,1.28,0,2.54.09,3.79.43,1.14.31,2.36.36,3.53.55.55.09,1.09.21,1.63.34.77.19,1.53.41,2.3.6.23.06.53,0,.7.13,1.39,1.1,3.03.79,4.6.84.88.03,1.74-.02,2.5.6.28.23.74.3,1.13.32,1.04.05,2.07.02,2.94.77.21.18.61.19.92.2.81.03,1.51.38,2.25.62,1.71.54,3.32,1.39,5.24,1.4,1.95.02,3.78,1.1,5.79,1.11,3.16,1.35,6.42,2.34,9.73,3.24,2.06.56,4.03,1.45,6.06,2.15.75.26,1.53.41,2.29.63.45.13.89.31,1.33.45,1.87.61,3.76,1.17,5.42,2.29,2.99.11,5.26,2.06,7.9,3.06,1.64.62,3.23,1.36,4.82,2.09,1.31.6,2.59,1.27,3.87,1.91,2.07,1.04,2.67,3.31,4.05,4.93.8.94.88,2.19.85,3.42-.04,2-.04,4,0,6,.02,1.27-.42,2.37-1.16,3.33-.88,1.14-1.74,2.32-2.82,3.25-1.6,1.38-3.53,2.17-5.66,2.34-1.04.08-2.06.04-2.98.69-.36.25-.92.25-1.39.26-1.04.04-2.08.03-3.12,0-.39,0-.89.01-1.15-.21-1.04-.86-2.25-.72-3.43-.73-3.04,0-6.08,0-9.12.02-.5,0-1.14-.22-1.45.44.04.1.06.21.1.22,2.33.49,4.57,1.3,6.81,2.1,1.32.47,2.54,1.36,4.06,1.17,1.21,1.05,2.7.76,4.11.88.45.04.9.27,1.34.44.29.11.57.4.85.4,1.1-.02,1.93.66,2.89,1,2.15.77,4.23,1.79,6.54,2.06,2.96,1.62,6.4,1.86,9.45,3.3,2.8,1.32,5.72,2.37,8.57,3.59,5.24,2.24,9.83,4.54,14.14,7.23,1.62,1.01,3.41,1.82,4.84,3.05,1.59,1.37,3.46,2.22,5.12,3.42.71.52,1.46.95,1.97,1.7.22.33.5.68.84.84,1.43.68,2.13,2.1,3.26,3.06,1.66,1.41,2.29,3.42,3.25,5.24.21.39.19.93.2,1.41.03,1.12-.09,2.25.04,3.36.27,2.24-.55,4.2-1.36,6.19-.6,1.47-1.71,2.59-2.93,3.42-1.77,1.2-3.76,2.12-6.01,2.11-2.56,0-5.12.03-7.68-.02-.87-.02-1.75-.15-2.59-.37-1.72-.45-3.45-.6-5.22-.58-1.91.02-3.82.1-5.72-.38-.89-.23-1.9-.04-2.85.03-.22.02-.42.36-.78.7.68.42,1.2.74,1.71,1.07,1.94,1.26,3.88,2.51,5.81,3.8.46.31.87.7,1.26,1.1,2.57,2.63,5.16,5.24,7.66,7.93,1.25,1.34,2.51,2.72,3.45,4.28,1.75,2.91,2.71,6.1,2.23,9.57-.05.38-.21.76-.38,1.11-.93,1.93-1.93,3.81-3.05,5.64-.44.71-.99,1.24-1.64,1.7-2.21,1.55-4.77,2.23-7.35,2.75-1.32.26-2.68.07-4.02-.36-2.43-.78-4.88-1.48-7.35-2.13-1.62-.42-3.27-.65-4.94-.85-2.12-.25-4.22-.7-6.24-1.49-.72-.28-1.55-.3-2.33-.36-.95-.07-1.86-.03-2.74-.63-.86-.57-1.96-.45-3.68-.03-.1.45.25.49.53.63.63.32,1.23.74,1.89.99,2.4.89,4.62,2.12,6.85,3.34,1.25.69,2.63,1.15,3.94,1.73,1.82.81,3.61,1.67,5.12,3.02.46.41,1.03.71,1.57,1.03,2.45,1.44,5.21,2.27,7.65,3.75.41.25.87.41,1.26.68,1.84,1.26,3.65,2.55,5.48,3.82.52.36,1.07.67,1.59,1.04,1.16.84,2.31,1.7,3.45,2.57.57.43,1.03.96,1.78,1.17.5.14.93.59,1.33.97,1.22,1.14,2.41,2.26,3.81,3.23,2.04,1.42,3.62,3.37,4.49,5.79.32.9.77,1.76.99,2.67.37,1.57.38,3.18-.01,4.74-.23.92-.64,1.79-1,2.67-1.14,2.76-3.13,4.77-5.65,6.3-1.68,1.02-3.47,1.49-5.47,1.4-2.87-.12-5.76-.03-8.64-.03-1.92,0-3.84.05-5.71-.5-1.47-.43-2.98-.49-4.51-.49-.71,0-1.42-.17-2.12-.3-1.88-.34-3.75-.78-5.69-.65-.88.06-1.74,0-2.5-.61-.28-.23-.74-.29-1.13-.3-1.05-.03-2-.18-2.96-.74-.62-.36-1.55-.21-2.35-.25-.95-.05-1.9.02-2.74-.64-.33-.26-.9-.27-1.37-.29-.88-.05-1.76-.03-2.64-.03-.96,0-1.94.06-2.7-.69-1.58-.2-2.89-1.35-4.55-1.27-1.37-.83-3.08-.69-4.45-1.53-.2-.12-.44-.27-.66-.26-1.72.07-3.3-.47-4.88-1.01-.9-.31-1.8-.7-2.74-.8-1.53-.18-2.94-.68-4.38-1.12-2.74-.85-5.53-1.55-8.25-2.48-1.27-.44-2.46-1-3.86-1-.94,0-1.6-.92-2.66-.95-.81-.02-1.59-.68-2.43-.82-.87-.15-1.75-.12-2.46-.76-.11-.1-.29-.17-.44-.17-2.14.02-3.95-1.11-5.91-1.73-.3-.1-.61-.22-.92-.24-1.35-.07-2.73.02-3.9-.87-.11-.09-.31-.11-.46-.09-2.38.34-4.54-.8-6.83-1.1-1.56-.2-3.06-.84-4.58-1.29-.76-.22-1.51-.51-2.29-.69-2.09-.48-4.28-.67-6.25-1.44-1.86-.72-3.96-.46-5.69-1.61-.35-.23-.93-.14-1.41-.15-1.11-.04-2.22.05-3.2-.73-.32-.26-.92-.21-1.39-.22-1.2-.04-2.4,0-3.6-.05-.55-.02-1.2,0-1.62-.28-.94-.62-1.95-.64-2.99-.66-.48-.01-1.08.08-1.4-.17-1.2-.94-2.56-.75-3.9-.78-1.43-.03-2.83.08-4.18-.72-.62-.36-1.57-.31-2.35-.22-2.4.26-4.51-.71-6.66-1.5-.69-.25-1.35-.45-2.07-.45-1.76,0-3.52.02-5.28-.03-.71-.02-1.49-.02-2.1-.32-1.29-.63-2.63-.63-3.99-.61-1.69.03-3.34-.05-4.96-.64-.73-.27-1.57-.29-2.36-.31-2.64-.04-5.28,0-7.92-.04-.87-.02-1.77-.1-2.59-.35-2.47-.74-4.96-1.19-7.55-1.05-.56.03-1.12-.02-1.68,0-2.49.12-4.91-.3-7.36-.72-2.83-.48-5.73-.54-8.55.24-.32.09-.59.39-1.11.76.83.46,1.43.78,2.02,1.13.55.33,1.07.69,1.61,1.03,1.07.69,2.15,1.37,3.22,2.07.33.22.61.54.97.7,1.51.65,2.73,1.66,3.79,2.87.82.94,2.02,1.24,3.03,1.84,2.01,1.18,3.49,2.8,4.54,4.8.57,1.1,1.34,2.18,1.23,3.58-.03.42.33.87.51,1.31.47,1.16.57,2.31-.12,3.43-.17.27-.34.56-.39.86-.59,3.48-2.63,6.09-5.11,8.41-.62.57-1.44.98-2.23,1.3-1.3.53-2.63,1.08-4,1.34-1.14.22-2.41.31-3.42-.6-2.09-.34-3.96-1.55-6.22-1.28-1.48.17-3.03.22-4.41-.72-.35-.24-.93-.18-1.4-.19-1.03-.04-2.02-.04-2.97-.68-.52-.35-1.38-.25-2.09-.28-.96-.04-1.89-.04-2.77-.59-.44-.27-1.06-.32-1.61-.35-.96-.06-1.92-.02-2.88-.03-1.26-.02-2.56.19-3.67-.73-.27-.22-.76-.19-1.16-.2-.88-.03-1.7-.11-2.5-.63-.48-.32-1.22-.33-1.84-.33-1.3.01-2.54-.17-3.77-.59-.52-.18-1.09-.38-1.63-.35-2.65.19-5-.8-7.39-1.7-.82-.31-1.68-.65-2.53-.67-1.63-.03-3.16-.43-4.71-.8-.46-.11-.94-.14-1.42-.22-1.1-.16-2.2-.32-3.3-.49-.94-.15-1.9-.26-2.82-.5-.91-.23-1.76-.69-2.67-.87-.93-.18-1.91-.12-2.87-.17-1.41-1.22-3.44-.52-4.92-1.6-.34-.25-.92-.19-1.4-.2-1.12-.03-2.24-.02-3.36-.03-.8,0-1.54-.09-2.28-.53-.57-.34-1.36-.36-2.06-.41-1.11-.07-2.17-.1-3.23-.67-.71-.38-1.71-.26-2.58-.31-1.18-.06-2.35.06-3.45-.7-.52-.35-1.39-.23-2.1-.26-.96-.04-1.9-.03-2.76-.62-.37-.25-.9-.26-1.37-.34-.31-.05-.64-.05-.96-.02-1.66.16-3.07-.87-4.68-.93-1.51-.06-3.03,0-4.5-.55-.73-.27-1.55-.4-2.34-.41-1.22-.01-2.38-.21-3.53-.6-1.67-.57-3.38-.91-5.17-.88-.94.02-1.9-.19-2.83-.36-1.33-.24-2.63-.66-4.02-.6-.47.02-.94-.16-1.41-.24-1.8-.34-3.61-.58-5.44-.75-2.02-.19-3.95-1.08-6.03-1.09-1.07-.98-2.39-.73-3.65-.75-1.6-.03-3.2,0-4.8-.02-1.19-.01-2.37.13-3.45-.69-.38-.29-1.07-.23-1.62-.24-2-.03-4,0-6-.04-.55,0-1.24.04-1.62-.25-1.07-.82-2.26-.68-3.45-.69-1.84-.02-3.68,0-5.52-.02-.95,0-1.87,0-2.75-.6-.47-.32-1.22-.32-1.84-.33-2.32-.04-4.64-.02-6.96-.03-1.83,0-3.67,0-5.5-.05-.54-.02-1.12-.15-1.61-.38-.9-.42-1.83-.52-2.8-.52-2.24,0-4.48,0-6.72,0-1.12,0-2.24-.07-3.22.66-.29.22-.76.21-1.15.28-.39.07-.85,0-1.18.17-2.72,1.5-5.65.55-8.47.75-.22.02-.52-.04-.68-.18-1.02-.89-2.25-.7-3.43-.72-1.28-.02-2.56-.01-3.84-.01-.88,0-1.75.01-2.5-.62-.22-.19-.6-.31-.89-.28-1.79.22-3.29-.66-4.69-1.47-1.5-.87-2.88-2.04-4.07-3.3-1.07-1.14-1.97-2.5-2.13-4.17-.02-.24-.03-.51-.15-.7-1.44-2.13-.63-4.5-.68-6.76-.01-.56.51-1.13.81-1.69.81-1.54,1.57-3.12,2.87-4.33.17-.16.37-.4.36-.6-.01-.28-.13-.64-.34-.8-.23-.17-.6-.2-.91-.2-1.2-.03-2.41-.1-3.6-.01-2.02.15-3.72-.74-5.41-1.58-2.22-1.1-3.69-3-4.78-5.18-.46-.92-.8-1.89-1.21-2.83-.58-1.32-1.55-1.84-3.07-1.61-1.17.18-2.3.4-3.44.87-1.06.45-2.02,1.24-3.31,1.26-1.09.02-1.93,1.13-3.13.96-1.21.98-2.94.64-4.15,1.64-2.31.37-4.2,1.91-6.51,2.31-.53.09-1.02.46-1.53.68-.44.19-.88.44-1.34.49-3.69.41-7.04,1.98-10.55,3.03-1.33,1.14-3.24.72-4.65,1.71-.34.24-.93.14-1.41.16-.72.03-1.41.06-2.04.53-.35.26-.89.28-1.34.43-.52.17-1.03.36-1.55.55-.37.13-.74.34-1.12.36-1.12.05-2.24.05-3.15.87-1.84-.05-3.19,1.34-4.93,1.65-1.64.29-3.22.91-4.81,1.41-.45.14-.89.34-1.29.59-.16.1-.28.42-.25.62.03.2.24.47.42.52.46.11.95.15,1.42.15,6.32,0,12.64.05,18.96-.03,1.58-.02,3.15-.42,4.73-.63.87-.11,1.74-.28,2.61-.28,9.12-.02,18.24-.04,27.36,0,2.65.01,5.26.4,7.58,1.84,3.82,2.38,6.25,5.64,6.35,10.31.03,1.59,0,3.16-.38,4.76-.62,2.56-2.16,4.47-4.05,6.06-2.7,2.26-5.9,3.42-9.47,3.42-.54,0-1.22,0-1.61.3-.93.7-1.95.63-2.98.64-1.12.01-2.24-.02-3.36.03-.55.02-1.19.04-1.62.32-.95.61-1.96.61-3,.61-2.32,0-4.64.01-6.96.01-.89,0-1.74.05-2.53.56-.38.24-.9.34-1.36.36-1.04.06-2.03.05-2.97.72-.45.32-1.23.25-1.86.26-2.48.03-4.96.02-7.44.03-.88,0-1.72.03-2.51.59-.41.29-1.06.32-1.6.34-1.28.05-2.56.03-3.84.04-1.04.01-2.05-.03-3,.6-.43.28-1.06.3-1.61.33-.96.06-1.92,0-2.88.06-.47.02-1.05.02-1.37.28-.91.73-1.94.64-2.97.65-.64,0-1.28.04-1.92,0-1.93-.11-3.85.05-5.7.55-1.42.38-2.84.41-4.28.42-.72,0-1.44.05-2.16,0-2.02-.14-3.97.25-5.94.59-1.02.18-2.05.36-3.08.36-2.58,0-5.09.2-7.51,1.19-.64.26-1.41.23-2.12.24-3.12.03-6.24,0-9.36.04-.87.01-1.78.09-2.59.36-1.39.47-2.8.63-4.25.57-1.45-.05-2.85.13-4.25.56-.97.29-2.04.38-3.06.38-5.36.04-10.72.02-16.08.02-1.19,0-2.36-.03-3.47.66-.55.34-1.39.27-2.1.28-2.64.03-5.28.02-7.92.02-.96,0-1.86.1-2.77.57-.66.34-1.54.36-2.32.37-3.2.04-6.4.02-9.6.03-1.04,0-2.02.06-3.01.59-.65.35-1.54.34-2.33.34-5.2.03-10.4,0-15.6.03-1.41,0-2.91-.3-4.12.79-1.26.17-2.57.47-3.72-.27-.66-.42-1.33-.51-2.05-.51-1.44,0-2.88-.03-4.32,0-.55.01-1.21.02-1.6.31-.93.69-1.95.62-2.98.62-7.36.01-14.72,0-22.08.02-1.18,0-2.3.04-3.46.65-1.19.62-2.69.57-3.93-.09-.91-.49-1.81-.56-2.77-.56-3.28,0-6.56,0-9.84,0-.96,0-1.86.1-2.77.57-.66.35-1.54.35-2.32.36-4.48.03-8.96.02-13.44.02-4.96,0-9.92-.02-14.88-.03-1.04,0-2.02-.06-3.01-.59-.65-.35-1.55-.32-2.33-.32-4.64-.03-9.28-.02-13.92-.02-5.12,0-10.24,0-15.36-.02-1.11,0-2.17.03-3.22-.64-.6-.38-1.54-.3-2.33-.3-5.52-.02-11.04,0-16.56-.02-1.58,0-3.17.18-4.66-.73-.54-.33-1.4-.2-2.12-.21-3.52-.02-7.04-.02-10.56-.02-.96,0-1.87-.07-2.77-.56-.59-.32-1.38-.35-2.08-.37-2.16-.05-4.32-.03-6.48-.03-.8,0-1.6,0-2.3-.5-.25-.18-.57-.35-.87-.36-2.6-.15-4.88-1.42-7.32-2.14-1.02-.3-1.87-1.18-2.8-1.79-.87-.57-1.57-1.33-2.34-2.02-1.74-1.57-2.26-3.8-3.44-5.65-.2-.31-.18-.77-.2-1.16-.03-.8-.03-1.6-.02-2.4.02-1.44-.18-2.94.16-4.3.38-1.51,1.2-2.92,1.93-4.33.98-1.87,2.43-3.35,4.11-4.61.83-.62,1.61-1.3,2.44-1.92.5-.37,1.04-.7,1.59-1.01,1.09-.64,2.17-1.3,3.29-1.86,1.93-.95,3.94-2.03,6.1-1.86,2.49.19,4.32-.88,6.06-2.28,1.43-1.15,2.77-2.42,4-3.79.91-1.02,1.84-1.98,3.01-2.69.77-.46,1.37-1.02,1.75-1.87.25-.56.75-1.02,1.17-1.5,1.31-1.5,2.71-2.93,3.95-4.49,1.59-2.01,3.39-3.82,5.19-5.64,2.24-2.26,4.48-4.53,6.43-7.07.92-1.2,2.03-2.26,3.05-3.38.38-.41.81-.79,1.11-1.25,1.58-2.42,3.52-4.54,5.4-6.72.41-.48.74-1.04,1.09-1.57.26-.39.47-.84.78-1.18,1.09-1.17,2.23-2.26,3.04-3.68.38-.66,1.15-1.09,1.67-1.69,1.21-1.37,2.48-2.7,3.32-4.36.25-.49.68-.88,1.05-1.3.32-.36.77-.64.98-1.05.94-1.89,2.49-3.3,3.76-4.94.59-.76,1.18-1.5,1.79-2.24.2-.25.5-.44.63-.72,1.07-2.16,2.91-3.79,4.04-5.9.08-.14.14-.31.25-.41,1.49-1.27,2.21-3.11,3.35-4.63.72-.95,1.5-1.86,2.27-2.77.71-.83.98-2.02,2.16-2.49.3-.12.49-.61.67-.96,1.12-2.22,2.56-4.2,4.19-6.09,1.24-1.44,2.19-3.12,3.35-4.64,1.79-2.34,3.66-4.62,5.46-6.94.63-.81,1.17-1.7,1.76-2.55.32-.46.59-.99,1.01-1.34,1.23-1,1.78-2.43,2.44-3.76.36-.74.81-1.35,1.31-1.96.96-1.17,1.92-2.35,2.8-3.58.82-1.15,1.95-2.02,2.54-3.43.54-1.27,1.93-2.1,2.48-3.48.11-.28.34-.55.58-.76,1.45-1.3,2.47-2.92,3.5-4.54,1.03-1.61,2.24-3.1,3.16-4.79.48-.88,1.31-1.61,2.08-2.3,1.22-1.09,2.07-2.41,2.75-3.86.64-1.38,1.49-2.59,2.41-3.8,1.3-1.71,2.6-3.43,3.82-5.19,1.5-2.16,2.78-4.46,4.28-6.62,2.13-3.06,4.16-6.21,6.72-8.96.22-.23.39-.51.55-.78,1.35-2.25,2.76-4.48,4.03-6.78.55-.99,1.19-1.89,1.93-2.71,1.08-1.19,2.01-2.44,2.68-3.91,1.21-2.62,3.32-4.63,4.87-7.03.61-.94,1.3-1.82,1.93-2.74.8-1.19,1.5-2.41,2.5-3.48.86-.91,1.58-2.04,2.07-3.2.7-1.65,1.95-2.88,2.93-4.3,1.59-2.29,3.32-4.48,4.58-6.99.51-1.01,1.09-1.95,1.91-2.73.29-.27.6-.58.73-.93.73-1.88,2.24-3.29,3.09-5.1.03-.07.07-.15.12-.2,1.79-1.49,2.35-3.79,3.66-5.56,1.71-2.3,2.92-4.95,4.94-7.03.6-.61.83-1.56,1.38-2.23.9-1.11,1.29-2.53,2.39-3.53.48-.43.52-1.31.88-1.92,1.26-2.13,2.65-4.15,4.25-6.05,1.27-1.5,2.25-3.28,3.18-5.03.75-1.41,1.34-2.89,2.55-4,.45-1.73,2.08-2.73,2.67-4.44.45-1.31,1.52-2.41,2.3-3.62.64-1,1.2-2.06,1.9-3.02,1.07-1.47,1.83-3.14,2.98-4.57.93-1.16,1.69-2.47,2.54-3.7,1.27-1.83,2.23-3.87,3.37-5.79.57-.96,1.26-1.84,1.85-2.79,1.88-3.05,3.8-6.08,5.56-9.2,1.09-1.93,2.41-3.7,3.5-5.61,1.07-1.87,2.08-3.78,3.22-5.6.76-1.22,1.68-2.33,1.93-3.8.03-.15.12-.29.21-.42,1.01-1.52,2.04-3.03,3.02-4.57.29-.46.43-1.02.71-1.5.99-1.72,1.89-3.48,3.14-5.05.59-.73,1.07-1.64,1.3-2.54.25-.98.76-1.71,1.31-2.5.91-1.3,1.82-2.62,2.24-4.21.16-.58.67-1.06.95-1.62,1.26-2.59,2.87-4.97,4.34-7.43.6-1.01.99-2.15,1.44-3.24.72-1.78,1.46-3.54,2.65-5.08.19-.25.47-.52.5-.8.15-1.25.99-2.17,1.5-3.24,1.48-3.09,2.99-6.17,4.49-9.25.14-.29.29-.57.46-.84,1.54-2.44,2.52-5.12,3.44-7.84.38-1.13.96-2.2,1.54-3.24,1.09-1.94,2.25-3.85,3.36-5.78.16-.27.19-.61.31-.9,1.11-2.72,2.24-5.43,3.32-8.16,1.38-3.47,2.73-6.95,4.1-10.43.18-2.14,1.43-3.87,2.15-5.8.67-1.8,1.47-3.5,2.45-5.15,1.06-1.79,3.1-3.51,5.17-4.4.95-.41,1.84-.95,2.93-.92.22,0,.46-.11.67-.23,1.81-.98,3.62-1.01,5.42.03.2.12.46.23.67.21,1.15-.13,1.95.63,2.84,1.11,1.91,1.05,4.4,3.64,5,5.62.38,1.28,1.06,2.49,1.18,3.81.14,1.59.01,3.2,0,4.8-.97,1.48-.92,3.16-.99,4.83-.01.36-.3.72-.46,1.08-.13.29-.39.6-.35.87.29,1.85-.9,3.35-1.14,5.08-.11.76-.62,1.45-.86,2.2-.86,2.64-1.6,5.32-2.03,8.07-.04.23-.13.46-.21.69-1.38,4-2.04,8.19-3.09,12.28-.33,1.3-.85,2.54-1.22,3.84-.56,1.98-1.46,3.86-1.73,5.95-.09.67-.54,1.3-.84,1.94-.79,1.73-.81,3.71-1.74,5.39.1,1.73-1.33,3.06-1.23,4.79-1.04,2.75-1.61,5.65-2.77,8.38-1.02,2.41-1.61,5-2.42,7.51-.64,1.97-1.21,3.95-2.11,5.84-.75,1.57-1.23,3.26-1.84,4.88-.59,1.55-.65,3.27-1.58,4.69-.12.19-.22.46-.19.68.15,1.42-.54,2.59-1,3.86-.73,2.01-1.3,4.09-1.95,6.13-.22.68-.43,1.38-.78,2-1.12,1.96-1.7,4.13-2.47,6.22-1.07,2.91-2.03,5.86-3.06,8.78-.26.74-.66,1.43-.97,2.15-.82,1.88-1.42,3.83-1.93,5.83-.39,1.52-1.23,2.91-1.86,4.37-.41.95-.82,1.91-1.16,2.89-.15.44-.18.94-.18,1.41,0,.63.7,1.03,1.19.66.57-.43,1.1-.92,1.6-1.43,1-1.03,1.97-2.09,2.94-3.15.69-.75,1.55-1.36,1.77-2.5.08-.41.54-.77.88-1.1,1.98-1.87,3.63-4.03,5.4-6.08,2.08-2.42,4.38-4.65,6.63-6.92.96-.97,1.79-2.03,2.65-3.08,1.26-1.53,2.34-3.23,3.93-4.48.31-.25.63-.52.84-.85.98-1.55,2.29-2.89,3.2-4.44,1.03-1.75,2.67-2.96,3.65-4.71.11-.2.3-.39.5-.51,2.23-1.25,3.73-3.17,4.98-5.33.2-.34.47-.65.76-.91,2.14-1.95,3.87-4.21,5.33-6.7.24-.4.61-.75.99-1.04,3.3-2.46,5.99-5.46,8.1-9,.28-.47.72-.86,1.12-1.24.87-.83,1.7-1.69,2.21-2.81.13-.29.28-.69.52-.78,1.28-.47,1.55-1.78,2.33-2.66,1.52-1.74,3.02-3.5,4.54-5.24.78-.89,1.52-1.75,2.11-2.83.66-1.22,1.85-2.18,2.91-3.14,1.72-1.56,3.09-3.41,4.55-5.21,1.15-1.42,2.45-2.73,3.72-4.06.77-.81,1.61-1.54,2.03-2.63.11-.29.35-.53.56-.78,1.89-2.27,3.79-4.53,5.68-6.79.26-.3.58-.58.75-.92,1.03-2.16,2.88-3.58,4.55-5.19,1.26-1.21,2.4-2.54,3.62-3.8,1.78-1.83,3.04-4.09,4.89-5.88.84-.81,1.38-1.94,2.17-2.81,1.6-1.76,2.85-3.83,4.77-5.32.62-.48,1.09-1.17,1.53-1.83,1.12-1.69,2.6-3.02,4.11-4.32,1.63-1.4,3.26-2.74,4.3-4.75.68-1.31,1.84-2.39,2.87-3.5,2.94-3.15,5.92-6.27,8.91-9.38.55-.57,1.24-.99,1.82-1.53.58-.54,1.21-1.06,1.64-1.71,1.24-1.88,2.68-3.55,4.3-5.1,1.26-1.21,2.32-2.63,3.52-3.91.87-.92,1.87-1.71,2.86-2.52,1.48-1.19,2.74-2.66,4.06-4.04,1.92-2.02,3.8-4.08,5.73-6.09.55-.57,1.2-1.04,1.8-1.55.18-.15.46-.26.53-.46.66-1.67,2.21-2.48,3.46-3.56,2.06-1.78,3.66-4,5.6-5.89,1.03-1,2.05-2.04,3.31-2.72,1.14-.62,1.73-1.58,2.36-2.69-.9-.82-1.75-1.37-2.94-1.49-.75-.08-1.44-.63-2.19-.82-.69-.18-1.35-.27-2.02-.63-1.04-.57-2.19-.97-3.34-1.27-2.75-.71-4.97-2.45-7.43-3.7-1.21-1.58-3.14-2.09-4.69-3.16-1.57-1.08-3.17-2.14-4.66-3.33-1.1-.88-2.06-1.95-3.06-2.97-1.39-1.43-2.78-2.86-4.13-4.33-1.46-1.58-3.09-3.06-4.24-4.85-1.28-1.99-2.94-3.79-3.63-6.15-.15-.52-.42-1.08-.8-1.46-1.06-1.05-1.57-2.41-2.2-3.69-1.27-2.57-2.51-5.15-3.02-8.03-.2-1.16-.59-2.35-1.16-3.38-.53-.97-.65-1.94-.68-2.98-.02-.63.02-1.37-.3-1.86-.66-1.03-.61-2.12-.66-3.23-.03-.63.01-1.38-.31-1.85-.67-.95-.62-1.95-.63-2.98,0-4.16,0-8.32,0-12.48,0-1.12-.02-2.2.64-3.23.31-.48.26-1.23.3-1.86.09-1.49-.24-3.05.82-4.37.09-.11.11-.31.1-.46-.19-2.18,1.03-3.97,1.61-5.93.25-.84.55-1.66.78-2.51.49-1.78,1.66-3.24,2.32-4.94.34-.88.69-1.77,1.13-2.61,1.08-2.12,2.35-4.11,3.75-6.04.78-1.08,1.55-2.19,2.26-3.32.61-.97,1.31-1.8,2.09-2.59,1.23-1.26,2.31-2.62,3.24-4.13,1-1.63,2.42-2.99,4.04-4.02,1.02-.65,1.9-1.43,2.85-2.15,2.61-1.96,5.24-3.92,8.02-5.63,2.48-1.53,5.13-2.81,7.79-4.04,2.01-.93,4.09-1.78,6.36-1.97.39-.03.8-.16,1.14-.35,2.14-1.22,4.55-1.44,6.89-1.94,1.71-.37,3.45-.6,5.19-.86.71-.1,1.43-.14,2.15-.14,4.48-.01,8.96-.04,13.44.02,1.35.02,2.7.25,4.03.46,2.05.33,4.1.65,6.12,1.11,1.23.28,2.41.81,3.61,1.23,1.28.45,2.53.98,3.83,1.34,2.16.6,4.16,1.44,6.08,2.65,2,1.26,4.22,2.15,6.34,3.21.42.21.85.41,1.24.68,2.15,1.52,4.29,3.05,6.41,4.61.51.37.97.83,1.42,1.28,1.93,1.91,3.88,3.81,5.75,5.77.99,1.04,1.84,2.2,2.75,3.31.2.25.35.54.57.77,1.43,1.52,2.6,3.19,3.27,5.19.02.07.07.15.13.2,1.75,1.7,2.47,4.06,3.79,6.03.61.91.97,1.99,1.42,3,1.56,3.51,2.83,7.11,3.65,10.86.1.46.33.89.47,1.34.17.52.4,1.05.43,1.59.05,1.13.13,2.2.76,3.22.26.43.22,1.08.22,1.64.01,6.56,0,13.12,0,19.68,0,.48.09,1.07-.14,1.41-.88,1.29-.79,2.73-.83,4.16,0,.16,0,.34-.06.47-.7,1.2-.77,2.57-1.11,3.86-.51,1.92-1.14,3.82-1.87,5.67-.79,1.99-1.72,3.93-2.63,5.87-.27.57-.68,1.07-1.03,1.6-.26.4-.65.75-.79,1.19-.64,2.02-2.04,3.59-3.11,5.35-1.41,2.34-3.26,4.34-5.11,6.32-.65.7-1.34,1.34-1.74,2.25-.25.57-.69,1.09-1.14,1.53-.86.84-1.86,1.53-2.67,2.4-2.34,2.55-5.46,4.1-8.06,6.32-1.24,1.06-2.83,1.75-4.32,2.48-2.1,1.01-4.06,2.23-5.99,3.52-1.49.99-2.71,2.21-3.44,3.89-.47,1.1-1.26,2.04-1.83,3.06-1.19,2.16-2.47,4.26-3.73,6.37-.49.82-.4,1.8-.95,2.67-1.2,1.87-2.09,3.93-3.2,5.85-.64,1.1-1.51,2.06-2.19,3.14-.92,1.48-1.84,2.94-2.44,4.62-.56,1.56-1.54,2.94-2.45,4.36-1.5,2.32-3.15,4.59-4.08,7.25-.21.6-.43,1.28-.86,1.7-1.14,1.11-1.58,2.59-2.23,3.93-1.33,2.72-2.95,5.25-4.55,7.8-.5.8-.89,1.68-1.3,2.54-.58,1.21-1.08,2.46-1.71,3.64-.79,1.47-1.72,2.84-2.37,4.4-.58,1.38-1.52,2.61-2.3,3.9-1.19,1.98-2.37,3.95-3.3,6.08-.6,1.36-1.58,2.55-2.31,3.86-1.01,1.8-1.92,3.66-2.91,5.47-1.3,2.38-2.66,4.73-3.94,7.11-.94,1.74-1.81,3.53-2.72,5.29-1.16,2.25-2.31,4.51-3.48,6.75-.22.42-.57.76-.79,1.18-.51.99-1,2-1.42,3.03-.09.22.07.67.27.84.18.16.62.2.85.09.65-.29,1.29-.63,1.89-1.03,1.39-.93,2.66-2.08,4.14-2.81,1.65-.81,2.89-2.18,4.6-2.89,1-.42,1.81-1.28,2.72-1.92,2.09-1.45,4.1-3.06,6.33-4.28,2.31-1.26,4.37-2.83,6.52-4.31.65-.44,1.42-.71,2.08-1.12,1.2-.75,2.58-1.18,3.61-2.26.58-.61,1.43-1.04,2.25-1.32,2.45-.84,4.61-2.15,6.61-3.76.36-.29.79-.51,1.2-.74,1.3-.74,2.71-1.24,3.85-2.31.73-.68,1.77-1.01,2.68-1.49.35-.18.76-.27,1.07-.5,1.1-.8,2.33-1.32,3.57-1.86,2.27-.98,4.44-2.17,6.63-3.33,1.54-.82,2.99-1.78,4.53-2.59,2.8-1.47,5.6-2.95,8.46-4.29,1.93-.9,3.94-1.66,5.97-2.31,2-.65,3.84-1.53,5.55-2.75.58-.41,1.23-.73,1.85-1.08.48-.27.97-.54,1.46-.8.42-.22.83-.61,1.26-.62,1.66-.05,2.93-1.18,4.47-1.54.3-.07.6-.25.84-.46.68-.6,1.44-.9,2.33-1.11.82-.2,1.48-.82,2.42-.9.75-.06,1.43-.66,2.19-.82.79-.16,1.5-.36,2.22-.77,1.03-.58,2.22-.88,3.3-1.38.87-.4,1.66-.95,2.51-1.39.56-.3,1.13-.64,1.74-.77,2.59-.56,5.02-1.53,7.35-2.74,1.54-.05,2.75-1.28,4.33-1.21.37.01.79-.16,1.12-.36,2.4-1.39,5.28-1.65,7.58-3.27,2.75-.38,5.15-2.09,7.99-2.17,2.76-.98,5.68-1.45,8.35-2.75,1.35-.66,2.85-1,4.29-1.48,1.58-.53,3.14-1.17,4.88-1.02.29.02.65-.11.89-.29.69-.49,1.46-.58,2.27-.65.39-.03.81-.13,1.13-.34.71-.47,1.47-.56,2.28-.61.46-.03.99-.11,1.35-.36.56-.39,1.14-.52,1.78-.61.45-.06.88-.33,1.32-.47.52-.17,1.05-.39,1.58-.42,1.11-.08,2.25.03,3.17-.81.1-.09.31-.13.46-.12,1.48.11,2.78-.45,4.09-1.04,1.39-.62,2.9-.77,4.37-1.08,2.25-.48,4.53-.82,6.74-1.56,2.86-.96,5.86-1.53,8.91-1.67.78-.04,1.56-.26,2.32-.49,1.22-.37,2.39-.89,3.62-1.21.76-.2,1.58-.16,2.38-.19,1.03-.04,2.05.03,2.98-.66.39-.29,1.07-.27,1.61-.28,1.28-.03,2.54-.06,3.74-.66.54-.27,1.24-.28,1.87-.3,1.2-.05,2.4,0,3.6-.04.47-.01,1.06,0,1.38-.25.98-.79,2.09-.67,3.2-.69,1.04-.01,2.08,0,3.12-.03.47-.02,1.05,0,1.38-.25.99-.78,2.1-.66,3.21-.68.96-.02,1.87-.03,2.75-.62.47-.32,1.22-.31,1.84-.32,2.48-.04,4.96-.01,7.44-.04.64,0,1.43.12,1.87-.2,1.16-.82,2.4-.74,3.67-.76.48-.01.96-.05,1.42-.16,1.4-.32,2.78-.67,4.11-.99.53-.53.49-1.08.18-1.59-.53-.89-1.09-1.77-1.71-2.6-1.15-1.53-2.38-2.99-3.51-4.52-.47-.63-.81-1.35-1.16-2.05-1.26-2.47-2.55-4.92-3.74-7.43-.78-1.64-1.44-3.34-2.26-4.97-.63-1.25-.88-2.69-1.31-4.05-.14-.46-.31-.9-.44-1.36-.33-1.23-.65-2.46-.95-3.7-.11-.46-.09-.96-.23-1.41-1.12-3.68-1.79-7.41-1.71-11.29.08-3.68-.01-7.36.03-11.04.01-1.11.17-2.22.36-3.32.5-2.91,1.04-5.8,1.58-8.7.06-.31.12-.64.26-.92.64-1.3,1.06-2.62,1.28-4.08.18-1.23.82-2.39,1.32-3.56,1.14-2.7,2.26-5.4,3.5-8.05.46-1,1.26-1.83,1.8-2.8,1.77-3.21,3.84-6.22,6.28-8.95,1.96-2.2,3.9-4.44,6.08-6.41,2-1.81,3.86-3.8,5.95-5.49,1.73-1.39,3.67-2.53,5.58-3.67,1.91-1.13,3.9-2.11,5.84-3.19.41-.23.74-.61,1.11-.9.31-.24.62-.64.96-.67,2.42-.24,4.37-1.82,6.77-2.2,1.69-.27,3.28-1.12,4.92-1.72.45-.16.89-.38,1.35-.48,1.95-.43,3.89-.89,5.85-1.21,2.04-.33,4.1-.69,6.16-.74,4.24-.11,8.48-.08,12.72,0,1.75.03,3.5.27,5.22.55,2.6.42,5.19.87,7.75,1.46,2.1.48,4.15,1.15,6.21,1.79,1.67.52,3.41.89,4.75,2.16.15.14.45.2.68.19,1.36-.03,2.37.86,3.5,1.39,1.57.73,3.08,1.64,4.52,2.6,2.06,1.37,4.07,2.81,6.03,4.3,1.58,1.21,3.07,2.54,4.6,3.82.24.2.44.52.72.62,2.09.7,3.21,2.56,4.72,3.94.29.26.51.61.71.95.87,1.53,1.77,3.01,3.17,4.16.53.43.75,1.22,1.22,1.76,3.12,3.56,5.02,7.88,7.36,11.92.55.95.79,2.08,1.16,3.13.56,1.57,1.04,3.16,1.91,4.6.24.4.4.88.49,1.34.38,1.87.5,3.84,1.14,5.61.62,1.73.55,3.62,1.5,5.25.26.45.27,1.08.27,1.63.02,6.96.01,13.92,0,20.88,0,.4.07.86-.1,1.18-1.09,2.1-1.11,4.46-1.73,6.68-.78,2.77-1.42,5.57-2.48,8.25-1.39,3.54-2.87,7.05-4.79,10.35-.24.41-.55.77-.84,1.15-.44.56-1.06,1-1.15,1.78-.02.15-.09.33-.2.43-1.77,1.56-2.5,3.88-4.05,5.6-1.49,1.66-2.95,3.36-4.52,4.95-2.24,2.27-4.55,4.49-6.89,6.66-.93.86-1.96,1.67-3.05,2.3-1.19.68-2.18,1.64-3.32,2.3-2.16,1.25-3.94,3.25-6.58,3.61-1.5.89-3.09,1.58-4.72,2.22-1.48.59-2.84,1.45-4.44,1.75-.45.08-.84.45-1.26.67-.28.15-.57.39-.86.4-1.3.05-2.47.76-3.69.89-2.08.22-3.98,1.26-6.1,1.18-.31-.01-.69.03-.92.21-1.12.86-2.42.71-3.69.71-5.36,0-10.72,0-16.08,0-1.13,0-2.24,0-3.26-.59-.59-.34-1.22-.35-1.84-.03-.79.41-1.67.47-2.52.67-1.38.33-2.7.91-4.04,1.4-.22.08-.42.35-.62.33-1.58-.15-2.9.73-4.31,1.17-1.48.46-3.02.81-4.43,1.54-.91.47-1.9.85-2.9,1.09-1.5.37-2.76,1.19-4.13,1.82-1.45.66-2.97,1.14-4.46,1.68-1.12.41-2.29.71-3.37,1.22-1.58.74-3.15,1.46-4.88,1.82-.68.14-1.33.52-1.96.84-2.03,1.04-4.4,1.28-6.27,2.69-3.23.95-6.15,2.57-9.17,4-1.07.51-2.22.9-3.38,1.19-2.19.54-4.02,1.9-6.13,2.61-1.05.35-2.01.97-3.07,1.26-1.1.31-2.01.92-2.99,1.45-1.87,1.02-3.7,2.12-5.74,2.8-.6.2-1.18.51-1.74.8-2.82,1.49-5.76,2.73-8.5,4.41-1.81,1.12-3.83,1.92-5.8,2.75-1.59.68-2.98,1.82-4.76,2.09-.22.03-.46.19-.6.36-1.01,1.23-2.53,1.61-3.86,2.27-1.92.96-3.94,1.73-5.88,2.66-.86.41-1.64,1-2.41,1.56-1.35.99-2.86,1.64-4.38,2.33-1.94.88-3.73,2.07-5.57,3.17-.31.19-.51.58-.77.89,1.23.68,2.75.84,3.85.2.74-.43,1.45-.6,2.26-.6,1.11,0,2.22.09,3.2-.7.32-.26.91-.22,1.39-.24,1.04-.04,2.08-.07,3.12-.02,1.09.06,1.97-.38,2.94-.79.92-.39,2.09-.19,3-.59.76-.34,1.47-.53,2.28-.54.4,0,.83.07,1.19-.05,2.21-.75,4.54-.79,6.81-1.19,1.65-.28,3.26-.77,4.96-.72.54.01,1.1-.18,1.63-.34,1.92-.56,3.85-1.03,5.87-1.08.55-.01,1.1-.19,1.65-.29,1.73-.29,3.43-.68,5.21-.69,1.34-.01,2.71-.23,4.02-.56,1.43-.36,2.85-.34,4.29-.35,1.2,0,2.4,0,3.6,0,1.11-.01,2.21.08,3.21-.68.39-.29,1.07-.26,1.62-.27,1.29-.02,2.53-.08,3.74-.66.61-.29,1.4-.29,2.11-.3,2.72-.03,5.44-.02,8.16-.02,10.4,0,20.8,0,31.2,0,1.35,0,2.69-.12,3.95.69.48.31,1.24.24,1.87.25,2.4.03,4.8,0,7.2.03.63,0,1.38-.08,1.87.22,1.18.71,2.42.69,3.7.76.87.05,1.73.3,2.59.42,3.47.48,6.96.86,10.4,1.51.31.06.64.1.93.23,1.91.88,3.96,1.18,5.99,1.6,1.17.24,2.36.36,3.54.54.55.08,1.13.11,1.64.31,1.11.43,2.35.47,3.35,1.22.91.67,2.1.45,3.14,1.02,1.05.57,2.34,1.01,3.54,1.18,2.01.29,3.18,1.75,4.65,2.77,1.25.87,2.02,2.2,2.5,3.7.38,1.2,1.05,2.31.98,3.65-.02.35.25.74.45,1.07.55.91.53,1.8.05,2.72-.22.41-.47.85-.53,1.3-.42,3.11-2.29,5.36-4.42,7.42-.54.53-1.33.96-2.07,1.11-1.85.36-3.47,1.49-5.47,1.38-1.17-.06-2.35.34-3.53.53-.78.13-1.57.36-2.35.35-1.7-.04-3.34.24-4.97.64-.69.17-1.41.32-2.12.32-2.18.03-4.22.61-6.32,1.1-2.38.56-4.72,1.51-7.26,1.32-.95-.07-1.91-.03-2.76.57-.31.22-.74.27-1.13.35-.31.07-.71-.04-.94.12-1.56,1.1-3.34.83-5.08.9-.47.02-1.03.02-1.39.27-.93.64-1.95.78-2.98.64-1.31-.18-2.24.78-3.42.94-1.09.15-2.2-.06-3.21.7-.44.33-1.22.26-1.85.3-1.03.06-2.06-.04-2.97.69-.33.26-.91.2-1.38.28-.39.07-.89,0-1.16.21-.89.72-1.9.73-2.94.79-.45.03-.9.27-1.33.44-1.55.61-3.06,1.24-4.74,1.52-1.79.3-3.54.95-5.26,1.57-.9.33-1.76.68-2.74.79-.85.1-1.67.49-2.5.78-1.71.6-3.42,1.29-5.15,1.73-1.52.39-2.92,1.21-4.53,1.31-.31.02-.65.08-.93.2-1.23.54-2.4,1.35-3.69,1.61-1.3.27-2.3,1.05-3.5,1.43-.29.09-.56.46-.82.44-1.53-.09-2.64,1.02-4.03,1.37-1.3.33-2.5,1-3.76,1.48-3.28,1.24-6.59,2.37-9.83,3.69-2.27.93-4.43,2.12-6.64,3.19-.28.14-.57.41-.85.4-1.37-.07-2.5.69-3.52,1.32-3.41,2.09-7.24,3.32-10.68,5.33-2.9.74-5.17,2.75-7.86,3.92-.87.38-1.62,1.05-2.51,1.32-1.41.43-2.25,1.41-3.08,2.44.16.59.59.6.98.59,1.33-.02,2.74.33,3.9-.69,1.83-.06,3.49-.9,5.27-1.17,1.02-.15,2.07,0,2.95-.76.21-.18.6-.2.91-.21,1.04-.03,2.06-.02,2.95-.75.27-.22.76-.22,1.15-.21,1.38.05,2.68-.25,4-.64.9-.26,1.89-.24,2.83-.35,1.03-.12,2.08-.14,3.07-.39,1.72-.45,3.45-.64,5.22-.57,1.13.04,2.18-.22,3.27-.54,1.59-.47,3.27-.76,4.93-.82,1.93-.08,3.79-.55,5.69-.75.79-.08,1.59-.27,2.37-.24,2.73.1,5.41-.26,8.08-.81.77-.16,1.59-.15,2.38-.17,1.12-.03,2.18-.04,3.24-.64.63-.36,1.55-.31,2.33-.31,5.44-.03,10.88-.02,16.32-.02,1.44,0,2.88,0,4.32,0,1.05,0,2.03-.18,3.04-.54,1.92-.68,3.94-.7,5.86.02,1.01.37,1.99.52,3.04.52,4.08,0,8.16,0,12.24,0,1.11,0,2.22-.05,3.24.63.42.28,1.07.27,1.62.3.88.05,1.76.07,2.64.02,2.26-.14,4.44.36,6.65.7.55.09,1.1.25,1.65.24,3.72-.08,7.27.84,10.77,1.94.85.27,1.68.46,2.57.47,1.91,0,3.76.04,5.64.77,1.75.68,3.73.82,5.61,1.13.64.11,1.25.17,1.78.6.23.19.59.33.88.32,2.21-.07,3.76,1.59,5.71,2.17,1.5,1.43,3.1,2.8,4,4.71,1.07,2.25,1.9,4.58,1.71,7.14-.23,3.23-1.39,6.02-3.84,8.2-.18.16-.36.32-.52.5-1.32,1.55-2.99,2.57-4.87,3.31-.29.12-.62.24-.82.47-1.07,1.18-2.6,1.61-3.94,2.16-3.03,1.24-5.91,2.79-8.92,4.06-1.3.55-2.64,1.06-3.98,1.53-1.55.55-3.28.61-4.69,1.58-.13.09-.3.17-.45.15-1.59-.21-2.88.81-4.36,1.08-.38.07-.72.32-1.09.44-.52.18-1.04.35-1.57.46-.47.09-1.04-.08-1.42.14-1.99,1.15-4.3,1.09-6.41,1.75-1.82.57-3.65,1.22-5.61,1.07-.15-.01-.32.03-.47.09-2.78,1.04-5.77,1.16-8.61,2.01-1.82.54-3.78.64-5.55,1.28-1.68.6-3.34.97-5.1.96-.08,0-.17,0-.23.04-1.57,1.11-3.37.78-5.1.85-.48.02-1.03-.02-1.41.2-1.25.74-2.79.61-4.03,1.45-.52.35-1.39.22-2.1.26-1.26.08-2.59-.22-3.66.76-.05.05-.15.09-.22.08-1.63-.1-3.08.6-4.57,1.08-.15.05-.35-.02-.47.06-1.91,1.14-4.14.98-6.19,1.56-1.99.57-4.04.93-6.06,1.43-.61.15-1.19.45-1.79.66-.59.21-1.18.42-1.79.6-.68.2-1.38.34-2.07.53-.38.1-.75.34-1.13.36-1.95.11-3.68.95-5.46,1.61-.65.24-1.39.38-2.09.36-1.47-.03-2.86.2-4.16.9-.63.34-1.26.71-1.94.92-1.41.45-2.7,1.39-4.31,1.17-.27-.04-.64.14-.87.33-.54.44-1.14.54-1.79.55-.65,0-1.26.09-1.8.53-.23.19-.59.38-.87.34-1.61-.22-2.89.73-4.31,1.15-1.75.52-3.48,1.11-5.21,1.7-1.96.67-3.88,1.43-5.86,2.03-1.59.48-3.02,1.46-4.75,1.51-.3,0-.58.23-.88.34-.51.19-1.04.54-1.54.52-1.54-.08-2.69.92-4.05,1.32-.42.12-.74.57-1.1.87.08.18.16.37.24.55ZM807.63,896.05c-.58-.62-1.04-.71-1.45-.33-.85.78-1.87,1.19-2.9,1.63-1.47.62-2.91,1.32-4.33,2.04-2.2,1.12-4.41,2.22-6.54,3.45-4.88,2.82-9.91,5.34-14.95,7.87-1.07.54-2.19.97-3.25,1.52-2.39,1.25-4.76,2.52-7.13,3.81-1.39.76-2.85,1.34-4.32,1.9-1.31.51-2.42,1.52-3.95,1.54-.34,0-.68.37-1.02.57-.55.32-1.09.67-1.66.94-2.3,1.1-4.61,2.19-6.93,3.25-2.45,1.13-4.83,2.47-7.66,2.4-.23,0-.5.04-.7.16-.99.58-1.98.44-3,.07-.44-.16-.93-.24-1.41-.26-1.04-.04-1.97-.22-2.95-.74-.97-.51-2.04-.89-2.93-1.57-.5-.38-.91-.89-1.3-1.39-1.24-1.57-1.96-3.4-2.74-5.23-.63-1.47-.66-2.92-.73-4.44-.05-1.06.71-1.77.88-2.7.32-1.75,1.03-3.31,2.04-4.76.16-.24.18-.58.27-.88-.66-.49-1.26-.48-1.87-.17-.77.4-1.53.83-2.3,1.23-2.25,1.17-4.52,2.3-6.91,3.15-1.81.64-3.63,1.22-5.6,1.16-1.44-.04-2.88.01-4.32-.02-2-.04-4.95-1.38-6.5-2.71-1.25-1.07-1.85-2.6-2.89-3.78-2.29-2.58-1.81-5.53-1.26-8.41.38-2,1.06-4,2.41-5.65.14-.17.14-.46.25-.67.88-1.6,1.48-3.33,2.55-4.83,1.25-1.74,2.29-3.61,3.29-5.51.48-.91,1.05-1.78,1.6-2.66,1.1-1.74,2.29-3.44,3.32-5.23,1-1.71,1.93-3.47,2.74-5.28,1.14-2.53,2.78-4.81,3.64-7.48.19-.58.67-1.07,1.02-1.6,1.18-1.8,2.55-3.51,3.5-5.43.87-1.76,1.86-3.47,2.61-5.32.94-2.32,2.55-4.36,3.48-6.72.11-.29.33-.54.53-.79.61-.76.92-1.62,1.19-2.57.32-1.13.84-2.29,1.58-3.2,1.18-1.45,1.93-3.11,2.83-4.7.31-.55.54-1.16.91-1.67.84-1.19,1.3-2.55,1.88-3.87.57-1.3,1.04-2.65,1.68-3.91,1.71-3.33,3.21-6.78,5.4-9.84.09-.13.15-.28.2-.44,1.25-4.11,3.5-7.82,4.82-11.9.15-.45.41-.86.59-1.3.74-1.85,2.06-3.39,2.73-5.29.58-1.64,1.39-3.21,2.19-4.76,1.41-2.77,2.76-5.56,3.74-8.51.07-.22.14-.49.3-.64,1.41-1.34,1.47-3.33,2.36-4.92.28-.51.35-1.22-.35-1.78-.82.52-1.6,1.16-2.01,1.97-.91,1.76-1.68,3.59-3.08,5.04-.48,1.85-1.83,3.13-3,4.54-.76.92-1.43,1.91-2.08,2.91-.69,1.06-1.29,2.18-1.97,3.24-1.69,2.6-3.09,5.4-5.17,7.74-.1.12-.16.28-.24.41-1.16,1.98-2.64,3.75-3.6,5.87-.65,1.44-1.57,2.77-2.44,4.1-.56.86-1.28,1.62-1.88,2.46-.64.89-1.12,1.92-1.86,2.72-1.37,1.49-2.31,3.27-3.23,5-.93,1.77-2.33,3.24-3.08,5.11-.11.28-.41.49-.64.71-.82.78-1.46,1.67-1.97,2.69-.35.71-.83,1.36-1.3,2.01-.65.91-1.36,1.77-2.01,2.67-1.02,1.42-1.97,2.9-3.02,4.3-1.15,1.53-2.32,3.03-3.19,4.75-.57,1.14-1.16,2.28-1.91,3.3-1.18,1.6-2.2,3.33-3.73,4.66-.24.21-.53.44-.61.72-.46,1.49-1.68,2.5-2.41,3.83-.49.9-1.04,1.78-1.58,2.66-1.04,1.7-2.03,3.42-3.49,4.83-.28.27-.38.7-.6,1.03-.31.46-.6.96-1,1.33-2.1,2.02-3.39,4.63-5.16,6.89-1.31,1.68-2.25,3.66-3.35,5.51-.89,1.51-1.83,2.98-3.04,4.27-.75.8-1.33,1.75-1.9,2.71-.76,1.27-1.62,2.52-2.49,3.73-1.06,1.49-2.32,2.83-3.38,4.32-2.07,2.92-3.88,6.04-6.51,8.53-.06.05-.11.12-.15.19-1.22,1.86-2.52,3.68-3.64,5.61-.86,1.47-1.91,2.76-3.09,3.94-1.02,1.03-1.91,2.11-2.58,3.41-.69,1.33-1.62,2.55-2.47,3.8-.4.59-1.03,1.09-1.25,1.74-.46,1.33-1.36,2.33-2.2,3.38-.59.73-1.08,1.51-1.88,2.12-.78.6-1.22,1.64-1.76,2.52-1.05,1.69-2.65,2.95-3.52,4.81-.57,1.21-1.42,2.31-2.29,3.33-.78.91-1.54,1.8-2.21,2.81-1.19,1.79-2.37,3.65-3.88,5.16-1.66,1.66-2.49,3.92-4.28,5.43-1.14,2.61-3.62,4.25-4.91,6.75-1.78,1.42-2.41,3.77-4.18,5.2-1.26,2.8-3.82,4.69-5.16,7.43-.07.14-.2.25-.31.37-1.31,1.5-2.62,2.99-3.93,4.49-.58.66-1.16,1.32-1.71,2.01-1.34,1.68-2.62,3.42-4.02,5.05-1.4,1.63-2.48,3.49-3.93,5.1-2.56,2.85-4.95,5.85-7.73,8.51-.52.49-1.09,1-1.4,1.62-.63,1.25-1.53,2.2-2.57,3.1-.91.78-1.75,1.65-2.55,2.54-1.12,1.24-2.29,2.46-3.23,3.84-.68,1-1.35,1.96-2.23,2.78-1.11,1.03-2.27,2.02-3.27,3.16-.83.95-1.54,2.03-2.16,3.13-.46.81.05,1.61,1.02,1.72.71.08,1.44.07,2.16.07,7.68,0,15.36.01,23.04,0,1.21,0,2.39.06,3.55.44,1.46.48,2.97.53,4.5.53,12.56-.02,25.12-.02,37.68,0,1.19,0,2.37.26,3.56.33,1.03.06,2.07.06,3.1,0,1.19-.07,2.37-.32,3.56-.33,9.84-.03,19.68-.02,29.52-.02.64,0,1.28.02,1.92-.01,1.62-.1,2.26-.74,2.31-2.42.05-1.6,0-3.2.04-4.8.01-.54.09-1.13.31-1.62.77-1.75,1.88-3.33,3.09-4.79.7-.84,1.59-1.71,2.57-2.09,1.97-.75,3.88-1.86,6.17-1.57.92.12,1.96,0,2.81-.33,1.16-.46,2.3-.61,3.51-.59,1.2.02,2.4.03,3.6-.02.71-.04,1.47-.08,2.1-.37,1.06-.48,2.14-.58,3.27-.57.96.01,1.92.01,2.88-.02.47-.02,1.07.03,1.39-.23.98-.79,2.09-.69,3.2-.71,1.19-.02,2.38.12,3.44-.71.32-.26.92-.21,1.39-.23.96-.04,1.92.01,2.88-.05.45-.03.89-.21,1.43-.36.04-.79.1-1.5.1-2.21.01-1.84.03-3.68-.02-5.52-.04-1.44.48-2.64,1.3-3.77.8-1.09,1.56-2.21,2.3-3.34.39-.59.21-1.27-.44-1.63-.63-.34-1.3-.6-1.97-.86-.37-.15-.81-.16-1.13-.37-2.52-1.63-4.64-3.68-6.06-6.33-.59-1.1-1.02-2.39-1.12-3.63-.18-2.21-.17-4.4.74-6.58,1.11-2.64,2.58-4.89,4.86-6.62,1.46-1.11,3.1-1.97,4.38-3.31.21-.22.51-.43.8-.49.86-.17,1.35-.82,1.94-1.34.6-.52,1.14-1.13,1.8-1.56,3.32-2.22,6.35-4.82,9.45-7.31,1.55-1.25,3.01-2.62,4.61-3.8,1.86-1.37,3.87-2.52,5.42-4.28.21-.24.49-.41.74-.6,1.08-.82,2.18-1.61,3.23-2.46.93-.76,1.72-1.71,2.71-2.35,1.85-1.17,3.31-2.75,4.88-4.23.52-.49,1.11-.89,1.68-1.32.76-.57,1.56-1.09,2.28-1.71,1.57-1.36,3.08-2.77,4.64-4.15.96-.84,1.99-1.6,2.91-2.47,1.34-1.26,2.61-2.59,3.91-3.89.4-.39.77-.85,1.24-1.12,2.95-1.7,5.12-4.24,7.5-6.75ZM1304.03,569.38c1.36-.75,1.71-1.62,1.36-3.06-.32-1.29-.29-2.71-.17-4.05.26-2.92,1.22-4.44,3.32-5.72,1.36-.83,3.02-.65,4.23.37.81.68,1.02,1.55,1.12,2.54.07.72.84,1.08,1.44.67,1.18-.8,2.46-1.48,3.16-2.84.32-.63.85-1.15,1.26-1.74,1.27-1.82,2.55-3.63,3.79-5.47.39-.58.56-1.36,1.03-1.85,1.02-1.07,1.61-2.37,2.14-3.67,1.17-2.87,2.36-5.72,3.47-8.62,1.44-3.77,1.84-7.74,2.78-11.6.07-.3.04-.64.04-.96,0-4.32.05-8.64-.03-12.96-.02-1.18-.34-2.36-.63-3.51-.09-.37-.57-.64-.99-1.08-.48,1.51-.84,2.81-1.3,4.08-.79,2.17-1.57,4.35-2.5,6.46-.54,1.23-1.26,2.37-2.32,3.3-1.31,1.16-2.47,2.5-3.75,3.7-.63.59-1.39,1.05-2.1,1.56-1.71,1.23-3.75,1.78-5.67,2.49-1.53.57-3.06,1.4-4.82,1.32-.45-.02-.93.21-1.38.37-1.07.38-2.16.53-3.29.52-3.52-.03-7.04,0-10.56-.02-.87,0-1.76-.09-2.6-.32-1.24-.34-2.47-.55-3.75-.68-1.33-.13-2.62-.59-3.93-.91-.38-.09-.84-.08-1.14-.29-1.69-1.15-3.71-1.42-5.55-2.13-2.72-1.05-5.54-1.86-7.96-3.62-1.2-.88-2.64-1.42-3.97-2.12-1.47-.78-2.99-1.45-4.23-2.61-.58-.54-1.27-.96-1.94-1.4-2.33-1.55-4.56-3.22-6.44-5.31-.32-.36-.67-.68-1.01-1.02-2.05-2.02-4.09-4.05-5.56-6.56-.16-.27-.35-.56-.6-.74-1.38-1.03-1.89-2.7-2.93-3.99-1.07-1.32-1.67-3.05-2.38-4.64-.61-1.36-1.14-2.77-1.61-4.19-.4-1.2-.71-2.44-1-3.67-.23-1.01-.31-2.05-.57-3.05-.58-2.22-.63-4.41-.01-6.62.19-.69.46-1.39.48-2.1.04-1.75.77-3.25,1.54-4.73,1.02-1.97,2.1-3.91,3.12-5.88.22-.42.35-.92-.28-1.22-1.35.63-2.82,1.09-4.03,1.93-3.4,2.36-6.97,4.52-9.74,7.69-.47.54-1.04.99-1.53,1.52-1.67,1.8-3.8,3.2-4.85,5.54-.03.07-.1.12-.16.18-1.67,1.62-2.42,3.94-4.16,5.52-.28.25-.41.68-.58,1.04-.5,1.09-.9,2.23-1.5,3.26-1.12,1.94-1.89,4.02-2.71,6.08-.85,2.13-2.06,4.15-2.13,6.54,0,.15-.12.29-.17.45-.21.76-.45,1.52-.62,2.3-.3,1.32-.44,2.69-.88,3.95-.35,1.01-.53,1.99-.53,3.04.01,3.76,0,7.52,0,11.28,0,.56-.04,1.14.1,1.67.23.9.54,1.8,1.66,2.19.27-.5.54-.9.72-1.33.7-1.71,1.86-2.84,3.61-3.58,1.44-.61,2.69-.74,4.07-.02.47.25,1.05.34,1.59.41.55.07,1.12,0,1.68.05,2.39.2,4.06,2.17,3.83,4.54-.12,1.3-.74,2.29-2,2.72-1.05.36-2.15.58-3.22.9-.45.13-.95.27-1.28.57-1.45,1.33-2.18,2.89-1.28,4.99.63.07,1.25.11,1.87.2,2.66.4,4.23,2.45,3.3,5.16-.37,1.08-1.03,1.99-1.93,2.69-.31.24-.76.36-.99.65-.26.33-.35.8-.53,1.25.97.44,1.62.2,2.37-.23,1.17-.67,2.43-.63,3.65.03.62.33,1.24.66,1.88,1,.18.92.65,1.84.46,2.62-.54,2.31-.28,4.62-.36,6.93-.03.82-.24,1.51-.64,2.25-.76,1.42-.39,2.95.7,4.15,1.51,1.66,3.49,2.5,5.51,3.26,1.7.64,3.43.73,5.13-.05.36-.16.75-.35,1.13-.36,2.32-.04,4.57-.61,6.91-.57,4.08.07,7.89.99,11.47,2.9.56.3,1.13.64,1.55,1.1.93,1.04,2.03,1.48,3.41,1.31,1.16-.14,2.39.28,3.3-.3.47-1.16,1-2.08,1.21-3.06.48-2.19,2-3.59,3.51-5.01.33-.31.79-.61,1.23-.68,1.8-.28,3.47-.21,4.72,1.5.51.7.73,1.35.78,2.18.07,1.23-.62,2.18-1.22,3.06-.98,1.44-.88,2.87-.37,4.33.32.91.6,1.8.68,2.77.1,1.19.3,2.37.49,3.55.11.71.56,1.13,1.28,1.21.32.04.65.07.96.01,2.33-.47,4.73-.64,6.98-1.48.97-.36,2-.58,2.93-1.01,1.47-.68,1.68-2.15.57-3.29-.78-.8-1.55-1.6-2.3-2.43-.96-1.06-1.27-2.8-.57-3.97.94-1.57,2-3.06,3.03-4.58.45-.66,1.01-1.25,1.37-1.95.42-.82,1.01-1.4,1.76-1.9.52-.35,1.13-.72,1.43-1.24.76-1.29,2.11-1.66,3.27-2.31.8-.45,1.71-.36,2.57-.08,1.56.51,2.61,1.5,2.89,3.31-.14.34-.4.77-.48,1.22-.22,1.25-.95,2.14-1.8,3.01-1,1.02-1.87,2.18-2.8,3.28-.1.12-.2.25-.28.39-.37.61-.04,1.36.65,1.47.31.05.64.08.96.06,1.07-.06,2.05.21,2.99.71.7.37,1.41.71,2.2,1.11ZM1006.54,690.54c-.61.08-.89.03-1.06.15-.98.68-1.92,1.41-2.89,2.11-.84.61-1.81,1.08-2.5,1.82-1.71,1.82-3.7,3.27-5.69,4.73-2.19,1.61-4.38,3.18-6.23,5.19-1.95,2.11-4.01,4.11-6.32,5.82-1.75,1.29-3.24,2.83-4.79,4.33-.57.56-1.1,1.16-1.7,1.69-.53.48-1.08.96-1.7,1.31-1.76,1-3.18,2.39-4.57,3.83-4.04,4.19-7.84,8.64-12.66,12.01-.2.14-.39.28-.56.44-1.16,1.08-2.1,2.42-3.74,2.88-.21.06-.36.31-.53.47-2.64,2.55-5.31,5.08-7.92,7.66-1.93,1.91-3.78,3.9-5.66,5.85-.78.81-1.62,1.5-2.58,2.11-1.96,1.24-3.64,2.85-5.23,4.55-1.91,2.04-3.88,4.02-5.84,6.01-.33.33-.75.58-1.13.86-1.59,1.17-3.27,2.2-4.62,3.7-1.91,2.14-3.96,4.17-5.97,6.22-.44.45-1.02.76-1.49,1.18-1.78,1.58-3.9,2.76-5.43,4.68-.73.92-1.71,1.7-2.72,2.31-1.97,1.18-3.48,2.84-4.81,4.59-.99,1.29-2.07,2.39-3.29,3.42-1.28,1.08-2.7,2.06-3.76,3.33-2.01,2.41-4.69,4.07-6.8,6.36-.11.11-.26.18-.39.27-1.11.77-2.29,1.47-3.32,2.34-2,1.7-4.33,2.29-6.86,2.4-2.12.09-4.06-.55-6.06-1.18-2.2-.69-3.73-2.03-5.01-3.81-.51-.71-1.03-1.42-1.56-2.11-.48-.61-1.31-.73-1.9-.24-.36.3-.67.68-.94,1.07-1.35,1.97-2.81,3.88-3.95,5.97-.62,1.14-1.57,2.03-2.1,3.14-1.4,2.99-3.47,5.5-5.4,8.12-.61.83-1.01,1.85-1.73,2.56-1.4,1.36-2.32,3.06-3.31,4.66-2.01,3.27-4.21,6.38-6.7,9.29-.21.24-.38.51-.55.78-1.7,2.7-3.59,5.26-5.73,7.65-1.01,1.13-2.13,2.2-2.92,3.47-1.19,1.91-2.54,3.65-4.1,5.27-1.5,1.55-2.9,3.19-4.31,4.81-.7.81-.69,1.68-.18,2.6.83-.36,1.61-.57,2.26-1,3.06-2.01,6.08-4.08,9.12-6.13.33-.22.62-.58.98-.66.93-.2,1.45-.95,2.16-1.45.7-.5,1.54-.82,2.2-1.36,1.42-1.16,3.09-1.92,4.57-2.97.77-.55,1.59-1.03,2.39-1.55.4-.26.77-.57,1.18-.81,1.73-1.01,3.32-2.19,4.73-3.62.55-.56,1.2-1.04,1.87-1.46,2.07-1.31,3.82-3.09,6.07-4.15.98-1.21,2.39-1.85,3.58-2.78.81-.63,1.83-1.03,2.58-1.72,1.88-1.74,4.33-2.75,6.03-4.72.1-.12.25-.23.4-.25,1.19-.23,1.89-1.13,2.67-1.93,1.63-1.66,3.39-3.15,5.33-4.43.59-.39,1.06-.95,1.57-1.44,1.09-1.05,2.02-2.38,3.3-3.1,1.14-.64,2.06-1.45,3.02-2.27.48-.41,1.04-.71,1.56-1.07,1.04-.74,2.2-1.37,3.06-2.28.99-1.06,2.02-2.02,3.19-2.88.9-.66,1.75-1.4,2.51-2.21,1.43-1.52,3.07-2.74,4.81-3.89,2.68-1.77,5.5-2.84,8.77-2.5.8.08,1.53.25,2.3.52,1.5.52,3.03.89,4.05,2.24.04.05.15.06.22.08,1.16.33,1.83,1.2,2.42,2.18.41.68.89,1.31,1.34,1.97.69,1,1.21,2.06,1.19,3.33-.03,1.6.02,3.2-.02,4.8-.01.55-.08,1.12-.25,1.65-.81,2.53-2.14,4.78-3.71,6.9-1.47,1.97-2.9,3.97-4.39,5.93-1.35,1.78-2.75,3.52-4.14,5.26-.89,1.12-1.92,2.14-2.7,3.33-.57.88-1.17,1.7-1.9,2.45-.61.63-1.21,1.27-1.79,1.93-2.12,2.39-4.22,4.78-6.33,7.17-.26.3-.6.57-.76.91-1.24,2.68-3.78,4.28-5.5,6.56-.75.99-1.76,1.82-2.52,2.86-.75,1.03-1.7,1.9-2.53,2.88-.67.78-1.27,1.63-1.93,2.42-1.22,1.47-2.33,3.08-3.74,4.34-1.26,1.13-2.39,2.33-3.39,3.67-1.49,1.99-3.14,3.81-4.96,5.5-.29.27-.62.53-.82.87-1.15,1.86-2.85,3.22-4.33,4.77-1.21,1.27-2.54,2.41-3.52,3.91-.46.7-1.24,1.26-1.98,1.69-2.28,1.32-3.51,3.66-5.34,5.4-.11,1-.9,1.42-1.59,1.96-.5.39-.9.9-1.37,1.34-1.44,1.37-2.72,2.92-4.53,3.88-.55.29-1.1.72-1.48,1.21-1.92,2.47-4.41,4.36-6.6,6.55-2.83,2.82-5.5,5.8-8.71,8.21-2.15,1.62-3.61,3.81-5.21,5.88-.17.22-.15.58-.22.87.85.5,1.67.51,2.36.06,1.29-.83,2.92-.7,4.17-1.59,1.49.11,2.57-1.27,4.09-1.13.2.02.41-.22.63-.31,1.16-.5,2.34-.96,3.49-1.5,1.44-.67,2.95-1.13,4.35-1.9,3.21-1.76,6.52-3.33,10.03-4.43,1.96-.62,3.76-1.63,5.79-2.1,1.2-.27,2.23-1.32,3.43-1.53,1.41-.24,2.43-1.15,3.7-1.59,1.8-.62,3.55-1.39,5.3-2.15,2.7-1.17,5.38-2.39,8.08-3.57,1.05-.46,1.65-1.17,1.38-2.18-.3-1.15-.27-2.37-.9-3.45-.69-1.18-.61-2.43-.01-3.67.24-.49.32-1.06.54-1.56.82-1.9.92-3.99,1.73-5.92.94-2.24,2.28-4.14,3.81-5.96,1.08-1.28,2.19-2.53,3.16-3.89.71-.99,1.35-1.97,2.63-2.3.29-.07.56-.31.77-.54,1.25-1.36,2.76-2.4,4.25-3.48,2.14-1.54,4.17-3.23,6.56-4.38,1.38-.66,2.58-1.54,3.63-2.64.27-.28.58-.61.94-.72,1.36-.43,2.3-1.41,3.27-2.35,1.5-1.46,3.13-2.71,5-3.67,1.05-.54,2.09-1.13,3.07-1.79,2.23-1.52,4.41-3.1,6.61-4.67.32-.23.6-.53.9-.78.8-.67.82-1.47.44-2.41-1.23-.41-2.44-.79-3.64-1.23-1.62-.59-2.93-1.63-3.97-2.98-.48-.63-.92-1.3-1.28-2-.72-1.41-1.76-2.8-1.81-4.37-.09-2.84-.63-5.77.78-8.48.73-3.41,2.64-6.29,4.23-9.3,1.41-2.67,3.12-5.18,4.64-7.79.6-1.02.94-2.21,1.6-3.18.67-.98,1.46-1.84,1.98-2.94.36-.76,1.22-1.26,1.74-1.95.57-.75.95-1.64,1.53-2.37.54-.69,1.03-1.39,1.49-2.15,1.28-2.11,2.52-4.28,4.08-6.18,1.22-1.49,2.24-3.08,3.26-4.69.56-.87,1.11-1.72,1.78-2.52,1.49-1.76,2.89-3.59,4.26-5.44,1.23-1.67,2.34-3.42,3.55-5.1,1.58-2.19,3.72-3.95,4.95-6.42.1-.2.32-.35.49-.52,1.35-1.27,2.26-2.89,3.28-4.4,1.51-2.23,2.62-4.76,4.74-6.56.18-.15.4-.35.44-.55.34-1.53,1.57-2.36,2.58-3.35,1.26-1.25,2.38-2.62,3.1-4.23,1.04-2.29,2.48-4.25,4.22-6.02.72-.74,1.42-1.51,2.06-2.31.64-.81,1.18-1.69,1.8-2.52,1.43-1.91,2.58-4,4.14-5.83,1.08-1.26,1.84-2.79,2.77-4.18,1.46-2.19,2.97-4.34,4.93-6.13.41-.37.91-.78,1.08-1.26.42-1.26,1.35-2.14,2.1-3.16,1.48-1.98,2.92-3.99,4.36-6,.79-1.09,1.25-2.41,2.3-3.33.21-.19.23-.57.39-.84.24-.41.44-.89.79-1.17,1.77-1.46,2.76-3.5,3.97-5.35.85-1.31,1.62-2.72,2.11-4.58ZM934.36,502.14c.82-1.69,1.99-2.96,3.43-4.02.55-.4,1.09-.63,1.75-.63,1.6,0,3.21.09,4.8-.04,1.44-.11,2.45.55,3.39,1.44,2.05,1.93,1.5,4.86-1.1,6.03-.88.4-1.77.67-2.75.76-1.2.12-1.97,1.05-2.06,2.25-.02.32-.02.64,0,.96.05,1.25.45,1.73,1.65,1.95.78.15,1.57.26,2.36.37,2.17.31,3.31,3.09,2.28,4.88-.34.59-.8,1.2-.67,1.93.69.77,1.53.53,2.3.55.89.02,1.72.09,2.47.7.41.33.97.48,1.33.65.68,1.59.77,3.09.75,4.63,0,.95.11,1.91.29,2.84.17.9.17,1.74-.23,2.57-.14.29-.28.58-.36.89-.45,1.58-.07,2.59,1.32,3.47,1.81,1.15,3.61,2.33,5.45,3.43.95.57,2,.98,3.01,1.45.29.13.71.09.9.29,1.06,1.11,2.56,1.26,3.87,1.78,1.62.64,3.21,1.44,4.84,1.92,1.71.49,3.47,1,5.24,1.27,1.02.16,2.08.08,3.11.01.54-.04,1.09-.22,1.58-.46,1.26-.63,2.15-1.57,2.64-2.95.54-1.53,1.46-2.76,2.97-3.6,1.97-1.09,3.18-2.93,3.68-5.06.43-1.85,1.25-3.41,2.43-4.81,1.43-1.71,3.1-1.97,5.12-.97.8.4,1.51.86,2.03,1.62.43.64,1.1.9,1.87.9,1.84,0,3.68,0,5.52.01.97,0,1.66-.42,2.19-1.22,1.28-1.92,2.52-3.88,3.91-5.72.91-1.2,1.98-2.31,3.14-3.28,1.51-1.26,3.06-1.04,4.4.38.22.23.46.45.67.68,1.15,1.28,1.22,1.85.45,3.42-.73,1.5-1.46,3-2.15,4.51-.42.92-.03,1.56.97,1.68,1.11.13,2.21.3,3.31.42,1.69.19,2.59-.96,2.02-2.55-.08-.22-.26-.41-.34-.63-.15-.45-.35-.9-.37-1.36-.05-1.28-.06-2.56,0-3.84.05-1.17.72-2.12,1.41-2.97,1.11-1.38,4.26-1.58,5.36-.03.32.45.77.81,1.18,1.19.98.88,1.6.79,2.31-.29.61-.93,1.32-1.8,1.87-2.76.59-1.03,1.02-2.14,1.55-3.19.25-.49.56-.95.85-1.43.2-.34.46-.66.6-1.03.81-2.16,1.62-4.32,2.38-6.5.53-1.5,1.15-2.99,1.41-4.54.32-1.88.52-3.77,1.13-5.59.17-.51.05-1.11.05-1.67,0-3.68,0-7.36,0-11.04,0-1.59.14-3.21-.73-4.68-.15-.26-.2-.62-.19-.93.08-1.51-.88-2.72-1.17-4.12-.03-.16-.36-.34-.56-.35-.2,0-.47.14-.6.31-.49.58-.5,1.31-.6,2.03-.18,1.26-.31,2.56-.76,3.73-1.16,2.99-2.92,5.67-4.71,8.31-.35.52-.87.95-1.39,1.31-2.56,1.76-5.21,3.37-7.99,4.78-2.5,1.27-5.05,2.37-7.92,2.45-.31,0-.69.07-.9.26-.88.77-1.93.66-2.97.66-4.64,0-9.28,0-13.92,0-1.03,0-2.08.1-2.96-.67-.21-.19-.6-.24-.9-.24-1.59-.04-3.19.03-4.63-.88-.3-.19-.78-.09-1.18-.13-.4-.04-.88.03-1.17-.17-1.41-.97-3.15-.92-4.68-1.64-2.65-1.25-5.55-1.94-8.03-3.6-.07-.04-.14-.08-.21-.11-2.13-.72-3.93-2.07-5.8-3.23-3.23-2.01-6.52-3.97-9.11-6.84-.9-1-1.77-2.03-2.72-2.98-2.03-2.03-3.81-4.24-5.22-6.76-.46-.83-1-1.62-1.5-2.43-.17-.27-.47-.53-.48-.8-.01-1.19-.66-2.16-1.18-3.1-.91-1.65-.55-3.65-1.65-5.2-.2-2.78-.49-5.58.17-8.33.31-1.31.91-2.55,1.34-3.83.15-.45.2-.94.23-1.41.03-.48.01-1.07-.53-1.21-.41-.11-.99-.06-1.34.17-.59.38-1.06.96-1.58,1.46-.34.33-.66.68-1,1-1.67,1.6-3.35,3.18-5.01,4.79-.22.21-.36.52-.53.79-.37.6-.69,1.24-1.11,1.81-2.15,2.97-4.21,5.98-5.83,9.27-.25.5-.48,1.01-.69,1.53-.51,1.25-.84,2.6-1.53,3.74-1.19,1.98-1.48,4.19-1.96,6.35-.12.54-.1,1.15-.34,1.62-.56,1.12-.61,2.3-.62,3.5,0,.63.07,1.39-.24,1.87-.8,1.25-.7,2.59-.7,3.94,0,2.4,0,4.8,0,7.2,0,1.12-.08,2.24.68,3.22.18.23.25.61.23.91-.09,1.88.89,3.54,1.06,5.37.07.76.53,1.31,1.62,1.58ZM978.38,777.08c.44,0,.86.12.99-.02.98-1.09,2.34-1.6,3.52-2.39.39-.26.89-.44,1.18-.79,1.26-1.52,3.09-2.24,4.63-3.36,2.24-1.64,4.69-2.99,7.04-4.49,1.07-.68,2.14-1.38,3.14-2.15.69-.53,1.23-1.27,1.92-1.8.68-.52,1.47-.91,2.22-1.34,1.87-1.07,3.71-2.17,5.43-3.49.94-.72,2.07-1.15,2.98-1.97.93-.83,2.04-1.48,3.14-2.09,1.66-.92,3.14-2.12,4.9-2.92,2.37-1.08,4.74-2.26,6.85-3.8,2.78-2.02,5.73-3.68,8.78-5.23,2.88-1.46,5.97-2.59,8.4-4.82,1.21-1.12,2.74-1.61,4.16-2.31,2.64-1.31,5.29-2.61,7.94-3.91,3.06-1.5,6.23-2.76,9.26-4.34,1.81-.94,3.61-1.95,5.66-2.47,2.61-.66,5.04-1.91,7.68-2.59,1.46-.38,2.88-.92,4.39-1.14,1.34-.19,2.77-.19,3.98-.7,1.56-.66,3.1-.67,4.69-.68,1.28,0,2.56-.01,3.84-.01,1.65,0,3.19-.6,4.49-1.44,2.33-1.5,4.66-3.04,6.63-5.03.44-.45,1-.83,1.57-1.08,2.86-1.26,5.41-3.04,8.06-4.65,1.7-1.03,3.35-2.14,5.03-3.19.67-.42,1.42-.7,2.04-1.17,1.58-1.2,3.3-2.16,5-3.17.82-.49,1.61-1.02,2.41-1.54.53-.35,1.04-.75,1.59-1.05,3.49-1.9,7.05-3.69,10.46-5.72,1.28-.77,2.34-1.89,3.96-1.93,1.8-1.03,3.57-2.1,5.4-3.08,2.67-1.43,5.34-2.87,8.07-4.18,2.63-1.26,5.36-2.33,8.02-3.56,2.44-1.13,4.85-2.35,7.27-3.52.21-.1.44-.17.67-.26,1.03-.41,2.07-.81,3.1-1.24,2.28-.96,4.55-1.93,6.82-2.89.15-.06.3-.13.46-.14,2.04-.08,3.77-1.19,5.67-1.72,2.21-.62,4.07-2,6.36-2.53,2.12-.49,4.09-1.64,6.1-2.55,1.1-.5,2.15-1.02,3.4-1.04.51,0,1.04-.34,1.52-.59.15-.08.26-.43.22-.62-.04-.19-.25-.45-.43-.5-.86-.22-1.82-.35-2.57.14-1.1.72-2.27.66-3.46.66-2.64,0-5.28-.01-7.92.02-.71,0-1.54-.03-2.09.31-1.04.64-2.12.6-3.24.65-.79.03-1.72-.11-2.35.25-1.28.73-2.6.65-3.94.72-.79.04-1.69-.02-2.32.35-.9.53-1.8.58-2.75.59-.96,0-1.92-.02-2.88.03-.55.03-1.19.04-1.6.33-.79.56-1.62.58-2.5.61-.71.03-1.58-.09-2.1.26-1.03.7-2.1.66-3.21.7-.48.02-1.07-.08-1.41.16-1.13.8-2.38.79-3.66.83-.46.01-.99.12-1.36.36-.87.58-1.81.59-2.77.56-1.37-.05-2.71.12-4.02.51-2.3.68-4.59,1.32-6.98,1.66-1.65.24-3.24.99-4.88,1.12-1.7.13-3.09,1.25-4.83,1.19-.74-.02-1.49.62-2.26.71-1.26.15-2.56.03-3.63.92-1.56-.08-2.92.65-4.35,1.1-1.27.4-2.55.82-3.79,1.28-.91.33-1.78.53-2.72.68-.99.17-1.94.6-2.91.9-.15.05-.32,0-.48.03-1.65.21-3.1,1.24-4.83,1.14-.07,0-.14.07-.21.11-1.81,1.06-3.83,1.51-5.82,2.07-1.07.3-2.13.67-3.18,1.04-.9.31-1.78.68-2.68.99-3,1.02-5.97,2.16-9.01,3.07-1.81.54-3.49,1.49-5.4,1.7-.23.03-.47.1-.68.21-.98.51-1.93,1.1-2.94,1.53-1.08.45-2.2.88-3.35,1.08-1.19.2-1.84,1.25-2.93,1.55-.46.13-.92.26-1.37.41-1.36.46-2.76.82-4.06,1.42-2.16,1-4.23,2.18-6.41,3.17-2.65,1.21-5.29,2.45-7.95,3.65-.5.23-.97.74-1.46.75-1.2,0-2.1.7-3.11,1.11-1.24.51-2.52.99-3.66,1.69-2.45,1.51-4.92,2.91-7.73,3.64-.38.1-.74.3-1.11.44q-3.59,1.38-7.41,1.37c-.96,0-1.92,0-2.88.03-.51.01-.96.22-1.17.7-.87,1.97-2.51,3.29-3.98,4.73-.98.97-1.82,2.02-2.39,3.25-1.18,2.57-2.83,4.8-4.76,6.84-.33.35-.67.7-.91,1.1-1.71,2.78-3.28,5.66-5.67,7.96-.17.16-.31.37-.43.58-1.29,2.22-3.06,4.06-4.63,6.05-.3.38-.69.69-.92,1.1-1.24,2.31-2.49,4.6-4.41,6.44-.17.16-.39.35-.44.56-.25,1.18-1.18,1.85-1.89,2.71-.76.92-1.45,1.91-2.07,2.92-1.13,1.83-2.61,3.44-3.51,5.42-.06.14-.19.26-.3.37-1.37,1.34-2.74,2.67-3.58,4.45-.23.48-.77.8-1.12,1.23-1,1.24-2.11,2.42-2.91,3.78-.74,1.25-1.53,2.43-2.48,3.51-.91,1.04-1.51,2.21-1.93,3.71ZM964.38,935.64c.49-.75,1.02-1.35,1.32-2.06.92-2.15,2.86-3.37,4.42-4.94,3.04-1.43,6.12-2.72,9.42-3.43,2.26-.48,4.53-.87,6.78-1.4,1.78-.42,3.52-1.02,5.29-1.5,1.82-.49,3.6-1.28,5.56-1.08.22.02.5-.07.68-.2.97-.76,2.11-.62,3.22-.68.79-.04,1.71.05,2.32-.33.97-.61,1.96-.58,2.98-.64.79-.05,1.68.02,2.32-.34.82-.45,1.62-.59,2.5-.64.47-.02,1.03-.05,1.37-.31.85-.66,1.79-.61,2.74-.62,1.04,0,2.08.03,3.12-.04.53-.04,1.09-.2,1.57-.43,1.96-.93,3.96-1.66,6.19-1.47.64.05,1.28,0,1.92,0,1.57,0,2.87-.9,4.33-1.27.07-.02.15-.1.17-.16.08-.29.21-.6.17-.88-.02-.17-.29-.39-.49-.44-.38-.1-.79-.12-1.19-.12-1.84-.01-3.68,0-5.52-.01-1.21-.01-2.37.1-3.51.61-.63.28-1.39.31-2.1.33-1.68.05-3.36,0-5.04.04-.63.01-1.39-.05-1.87.26-1.18.77-2.44.63-3.71.7-.78.05-1.65.05-2.32.39-.91.47-1.82.54-2.78.54-1.44,0-2.88-.02-4.32.03-.62.02-1.34.07-1.83.38-.74.47-1.48.54-2.28.54-1.68,0-3.36,0-5.04.03-.55.01-1.22,0-1.61.29-.93.7-1.94.63-2.97.65-1.11.02-2.22-.05-3.24.64-.42.28-1.07.27-1.62.3-.88.05-1.76.02-2.64.03-1.11.02-2.22-.09-3.21.67-.33.26-.91.24-1.38.26-1.04.04-2.08,0-3.12.04-.47.02-1.08-.04-1.39.22-.94.78-2.09.78-3.16,1.02-2.72.62-5.36,1.57-8.19,1.74-1.01.06-2,.53-2.99.82-.46.13-.91.42-1.36.42-2.1-.02-4.14.24-6.12.96-.29.1-.63.07-.95.08-1.48.03-2.8.56-4.09,1.24-.55.29-1.16.47-1.75.69-.44.16-.89.32-1.35.45-.6.18-1.23.52-1.81.46-2.09-.24-3.78,1.16-5.77,1.25-.84.82-1.91.68-2.94.73-.63.03-1.36-.01-1.86.29-.8.48-1.6.63-2.49.7-.53.04-1.05.31-1.57.49-.38.12-.74.35-1.12.37-2.22.11-4.45.32-6.48-.96-.87-.54-1.92-.85-2.66-1.52-3.25-2.93-5.55-6.36-5.23-11.01.03-.4.05-.81,0-1.2-.23-1.67.35-3.14,1.09-4.56.94-1.8,2.18-3.49,3.84-4.5,2.14-1.31,4.42-2.48,6.7-3.53,3.18-1.47,6.21-3.28,9.63-4.22.6-.17,1.15-.56,1.71-.86.35-.19.67-.44,1.04-.59,1.54-.63,3.09-1.23,4.62-1.86.8-.33,1.57-.93,2.39-1,1.42-.13,2.5-.96,3.76-1.4.37-.13.69-.55,1.03-.54,1.2.01,2.08-.69,3.1-1.12,1.68-.72,3.24-1.69,5.08-2.11,1.46-.33,2.86-.98,4.25-1.58,2.2-.94,4.38-1.91,6.63-2.74,1.04-.39,2.16-.55,3.15-1.03,1.42-.7,2.79-1.38,4.34-1.85,1.94-.58,3.67-1.8,5.82-1.75.22,0,.46-.13.67-.23,2.23-1.03,4.43-2.1,6.73-2.99,2.54-.98,5.08-1.86,7.72-2.53.77-.19,1.51-.52,2.25-.81,2.21-.86,4.33-1.93,6.64-2.55,1.05-.28,1.95-1.07,3.13-1.01.96-.83,2.24-.72,3.32-1.17,1.16-.48,2.27-1.07,3.44-1.53,1.04-.4,2.1-.85,3.19-.98,1.93-.23,3.65-1.13,5.5-1.58.71-.17,1.33-.71,2.13-1.16-3-.73-5.53.42-8.14,1.03-.94.81-2.09.66-3.2.71-.63.03-1.38-.02-1.85.3-.87.6-1.78.62-2.74.66-.63.03-1.35,0-1.87.27-1.49.79-3.29.54-4.73,1.54-.48.33-1.32.14-1.81.46-1.23.79-2.82.53-3.96,1.49-1.13,0-2.22.16-3.15.9-2.03.07-3.82,1.09-5.76,1.53-1.31.29-2.56.86-3.84,1.3-.6.21-1.19.54-1.8.59-.97.09-1.86.36-2.77.7-2.08.79-4.3,1.13-6.32,2.11-.2.1-.47.11-.71.1-1.77-.12-3.22.79-4.76,1.43-1.59.66-3.05,1.71-4.93,1.53-.43-.04-.9.26-1.34.42-.45.15-.89.33-1.34.47-1.43.42-2.94.65-4.28,1.27-1.67.77-3.38,1.36-5.14,1.86-1.3.37-2.64.7-3.87,1.24-1.82.8-3.64,1.61-5.51,2.3-2.53.93-5.14,1.55-7.66,2.47-1.25.45-2.53.87-3.78,1.3-.83.28-1.59.63-2.48.66-.31.01-.66.08-.91.25-1.99,1.35-4.37,1.75-6.53,2.68-3.44,1.48-7.23,2.04-10.53,3.92-.4.23-.94.21-1.37.4-1.65.71-3.56.95-4.95,2.59.07.92.15,1.94.24,2.97.08.87.23,1.74.25,2.61.11,3.69-1.59,6.78-3.34,9.84-.11.2-.31.36-.5.5-2.29,1.6-4.3,3.52-6.46,5.28-1.85,1.52-3.74,2.99-5.37,4.76-.48.52-1.04.93-1.75,1.21-.93.37-1.87.87-2.62,1.53-2.03,1.79-4.06,3.55-6.42,4.93-1.51.88-3.1,1.71-4.41,2.84-1.63,1.41-3.57,2.34-5.18,3.74-.97.84-2.06,1.46-3.18,2.08-1.73.97-3.31,2.21-4.92,3.38-.34.25-.53.7-.83,1.13.36.19.55.39.75.39,1.98.03,4,.38,5.88-.63.27-.15.61-.17.92-.24,2.31-.58,4.79-.31,7-1.39.13-.07.32-.02.47-.06.77-.18,1.56-.32,2.3-.58,2.17-.75,4.3-1.66,6.7-1.38.53.06,1.21.02,1.62-.26,1.09-.74,2.28-.61,3.47-.67.79-.04,1.7.04,2.33-.32,1.06-.61,2.13-.58,3.24-.64.63-.03,1.36,0,1.85-.32.8-.51,1.61-.62,2.5-.66.47-.02,1.03-.04,1.37-.3.77-.58,1.61-.63,2.49-.65.39-.01.89.02,1.16-.2,1.11-.91,2.41-.69,3.67-.74,1.57-.06,3.21.31,4.61-.81.22-.17.62-.09.93-.16.54-.11,1.09-.23,1.62-.39,1.52-.46,3.02-1.24,4.56-1.34,2.32-.15,4.54-.7,6.8-1.13,1.72-.33,3.52-.24,5.21-.66,2.71-.67,5.55-.66,8.2-1.63.87-.32,1.88-.15,2.7-.81.33-.26.91-.21,1.38-.27.55-.07,1.23.07,1.64-.2,1.23-.81,2.58-.75,3.93-.79.32,0,.69,0,.93-.17,1.06-.69,2.22-.81,3.44-.81.31,0,.69-.06.9-.24.88-.77,1.93-.66,2.96-.67,1.12,0,2.27.15,3.35-.04,1.57-.27,2.71.77,4.09,1.06.51.11.96.52,1.41.82,1.24.83,2.48,1.67,3.91,2.39ZM1233.7,731.9c-.36-.07-.59-.16-.82-.16-4.08-.01-8.16-.04-12.24,0-.86,0-1.74.22-2.57.47-1.01.3-2.01.49-3.06.46-.96-.03-1.92,0-2.88,0-.95,0-1.88-.01-2.75.61-.4.29-1.06.3-1.6.32-1.28.05-2.56.02-3.84.04-.48,0-1.08-.08-1.4.17-1.28.97-2.73.73-4.15.78-.79.03-1.62-.08-2.32.42-.7.5-1.49.53-2.29.53-1.52,0-3.04,0-4.56.02-.55.01-1.25-.08-1.63.21-1.22.93-2.58.69-3.92.74-1.49.06-3.06-.27-4.36.81-.11.09-.31.1-.46.1-1.2.02-2.4.04-3.4.87-2.02-.1-3.88.66-5.8,1.09-1.94.44-3.92.76-5.81,1.37-1.09.35-2.14.61-3.27.55-1.29-.06-2.56.1-3.78.49-1.91.61-3.84,1.11-5.87.97-.24-.02-.49,0-.71.08-2.03.7-4.14,1.25-6.07,2.17-1.45.7-3.01.91-4.49,1.42-1.44.5-3.17.04-4.6.99-.29.19-.78.09-1.18.11-1.19.04-2.39-.1-3.42.77-.26.22-.77.15-1.16.2-.47.07-1.05-.02-1.4.22-.9.62-2.08.47-2.89,1.05-1.02.74-2.13.55-3.21.73-.3.05-.59.22-.87.36-1.73.9-3.6,1.37-5.51,1.44-2.18.08-4.26.53-6.37.96-2.57.52-5.01,1.71-7.71,1.58-.15,0-.33.04-.46.12-1.46.89-3.09.82-4.67.72-2.62-.17-4.88.73-6.92,2.21-1.22.88-2.27,2.01-3.4,3.02-.53.48-1,1.16-1.63,1.37-1.14.38-1.83,1.23-2.65,1.98-1.65,1.5-3.32,2.99-4.99,4.47-.9.79-1.98,1.41-2.73,2.32-1.74,2.14-4.08,3.52-6.24,5.1-2.75,2.01-5.7,3.76-8.08,6.25-.27.28-.67.43-1.01.64-.41.25-.86.44-1.23.74-2.71,2.19-5.04,4.9-8.36,6.28-.07.03-.13.09-.19.14-1.76,1.5-3.48,3.05-5.3,4.48-1.73,1.37-3.16,3.15-5.28,4.03-.45.19-.74.74-1.22,1.24,1.16.63,2.2.61,3.11.13,2.31-1.21,4.88-1.84,7.11-3.23.32-.2.75-.28,1.13-.31.67-.05,1.17-.37,1.73-.71,1.3-.78,2.68-1.42,4.03-2.1.42-.22.86-.41,1.3-.6,1.46-.62,2.9-1.34,4.4-1.84,2.72-.89,5.4-1.88,7.99-3.1,1.49-.71,2.78-1.88,4.56-1.91.07,0,.14-.07.21-.11,1.9-1.35,4.24-1.65,6.29-2.64.64-.31,1.28-.65,1.96-.87,2.35-.76,4.66-1.59,6.93-2.61,1.66-.75,3.42-1.26,4.88-2.42.12-.1.29-.14.44-.2,1.82-.75,3.81-1.01,5.57-1.95,1.58-.03,2.82-.95,4.15-1.62.85-.43,1.69-1.13,2.56-1.18,1.41-.09,2.58-.71,3.83-1.16,1.72-.62,3.53-1.08,5.15-1.9,2.29-1.16,4.63-2.14,7.08-2.85,1.75-.51,3.38-1.47,5.27-1.48.23,0,.47-.09.69-.17,1.26-.49,2.48-1.11,3.77-1.47,1.37-.39,2.52-1.41,4.03-1.34.14,0,.29-.13.43-.21,1.11-.6,2.17-1.38,3.44-1.53,1.42-.16,2.4-1.23,3.7-1.59.23-.06.45-.25.67-.24,1.57.04,2.95-.66,4.38-1.11,1.21-.38,2.35-1.05,3.58-1.34,2.56-.6,4.95-1.83,7.6-2.08.15-.01.33-.07.44-.17,1.07-.91,2.63-.66,3.71-1.55,1.1.03,1.89-.87,2.89-.99,1.27-.15,2.55-.11,3.62-.97,1.57.09,2.75-1.24,4.32-1.17.21,0,.46-.16.63-.31.52-.46,1.15-.52,1.8-.53.65,0,1.25-.13,1.78-.57.23-.19.57-.3.88-.34,2.73-.31,5.22-1.45,7.74-2.38,2.26-.84,4.71-.88,6.89-1.93,3.24-.04,6.05-1.94,9.27-2.1.22-.01.43-.21.65-.28.6-.19,1.2-.38,1.8-.55.61-.17,1.27-.23,1.84-.48,1.38-.61,3-.4,4.28-1.36.22-.16.62-.06.94-.1.39-.06.89-.01,1.15-.24,1.04-.88,2.25-.66,3.44-.71.72-.03,1.57.14,2.12-.19,1.09-.66,2.22-.79,3.43-.83.23,0,.47-.1.68-.2,2.08-1.04,4.33-1.52,6.55-2.13.92-.25,1.87-.43,2.78-.72.61-.2,1.19-.52,1.16-1.52ZM1245.44,809.01c-.01-1.12-.11-1.33-.79-1.39-.8-.06-1.6-.06-2.4-.07-13.75,0-27.51,0-41.26,0-.64,0-1.28-.02-1.92.03-.39.03-.87.05-1.14.27-.9.74-1.94.65-2.97.66-4.96,0-9.91,0-14.87.01-1.11,0-2.19,0-3.24.63-.56.34-1.39.3-2.09.31-2.88.03-5.76.01-8.64.03-1.5,0-3.03-.18-4.41.75-.35.24-.93.17-1.4.19-.88.03-1.76,0-2.64.04-.47.02-1.06-.02-1.39.23-1.05.84-2.25.7-3.44.71-1.28.01-2.56.05-3.84,0-1.53-.06-3.02.14-4.5.52-.77.2-1.56.38-2.35.42-3.68.2-7.26.97-10.81,1.86-.92.23-1.86.46-2.81.52-1.36.08-2.68.12-3.97.71-.68.31-1.56.18-2.35.28-.94.12-1.91.17-2.82.43-1.17.34-2.32.55-3.53.54-.63,0-1.4-.05-1.85.27-1.01.73-2.1.63-3.21.68-.8.03-1.77-.18-2.35.2-1.41.93-2.92.83-4.39.72-2.37-.18-4.41,1.34-6.75,1.18-.07,0-.15.06-.21.11-.71.66-1.59.66-2.47.69-.39.01-.89-.02-1.16.19-.96.78-2.07.72-3.19.77-.47.02-1.02.05-1.37.31-.77.58-1.62.61-2.5.62-1.42.03-2.89-.19-4.12.83-.16.13-.47.08-.69.15-1.37.41-2.77.78-4.11,1.28-.83.31-1.63.57-2.53.66-1.75.17-3.5.89-5.37,2.09.54.08.93.27,1.24.16,1.25-.42,2.52-.36,3.8-.36,3.6,0,7.2.02,10.79-.01.79,0,1.65-.02,2.34-.34,1.22-.57,2.46-.61,3.74-.61,6.24,0,12.47,0,18.71,0,1.34,0,2.73-.24,3.9.75.21.18.61.17.93.17,3.66.07,7.08,1.25,10.41,2.52,2.64,1,5.27,2.22,7.41,4.21.17.16.39.33.6.37.85.14,1.37.78,1.98,1.28.55.45,1.16.83,1.73,1.26.72.55,1.51.56,2.25.17.64-.34,1.29-.55,2-.72,1.3-.33,2.53-.85,3.85-1.15.8-.18,1.53-.76,2.45-.78.29,0,.63-.17.86-.36.53-.45,1.15-.5,1.8-.54.39-.02.89.01,1.16-.21.89-.72,1.89-.75,2.94-.78.38,0,.81-.11,1.14-.29,1.4-.79,2.92-1.23,4.45-1.68,1.37-.4,2.72-.85,4.08-1.3.98-.33,1.93-.72,2.91-1.05,2.42-.81,5.02-.86,7.4-1.85,1.38-.58,2.77-1.2,4.35-1.07.35.03.72-.27,1.08-.43.29-.13.58-.37.86-.37,1.38,0,2.59-.55,3.88-.91,1.71-.49,3.37-1.48,5.27-1.15.15.02.35-.01.46-.1.77-.67,1.77-.63,2.65-.94.96-.34,1.85-.87,2.91-.94.28-.02.54-.31.83-.43.36-.15.73-.31,1.12-.37,2.27-.41,4.56-.75,6.82-1.2,3.2-.64,6.37-1.48,9.59-2.01,2.15-.35,4.15-1.08,6.19-1.74,1.87-.61,3.65-1.6,5.74-1.36.37.04.83-.08,1.13-.3.85-.6,1.79-.59,2.75-.64.55-.03,1.16-.05,1.63-.3,1.19-.63,2.45-.61,3.74-.66.78-.03,1.67-.03,2.3-.41.83-.49,1.66-.58,2.52-.52,1.89.12,3.62-.24,5.13-1.44ZM757.28,842.09c.54-.29.77-.38.95-.52,3.42-2.62,6.68-5.42,9.71-8.48,2.24-2.25,4.48-4.51,6.53-6.95.46-.55.96-1.1,1.54-1.5,2.13-1.48,3.88-3.3,5.25-5.49.29-.47.62-.96,1.04-1.31.86-.71,1.86-1.25,2.68-2,.87-.79,1.6-1.75,2.4-2.61.27-.29.59-.53.9-.78.49-.4,1.03-.75,1.48-1.19,1.13-1.12,2.41-2.17,3.28-3.47.89-1.33,1.99-2.46,2.93-3.73.71-.96,1.48-1.89,2.33-2.72,1.25-1.22,2.63-2.3,3.9-3.5,2.55-2.42,4.88-5.04,7.26-7.63,3.13-3.4,6.25-6.8,8.97-10.53.9-1.23,1.9-2.34,2.99-3.39.92-.89,1.71-1.98,2.78-2.62,1.27-.77,1.55-2.19,2.56-3.1.76-.69,1.33-1.58,2.01-2.36,1.05-1.2,2.33-2.25,3.13-3.6,1.14-1.93,2.86-3.43,3.83-5.46,2.46-2.72,4.51-5.8,7.22-8.3.4-.37.88-.81,1.01-1.3.25-.92.89-1.47,1.48-2.11.75-.82,1.49-1.66,2.15-2.56,1.87-2.57,3.88-5.06,5.45-7.84,1.98-1.68,3.14-3.97,4.56-6.06.98-1.44,1.96-2.88,3.08-4.23,2.65-3.17,4.62-6.84,7.19-10.1,1.36-1.73,2.48-3.7,3.48-5.66,1.03-2.01,2.38-3.78,3.62-5.61,1.47-2.18,2.6-4.54,4.08-6.7.12-.17-.03-.58-.15-.82-.04-.07-.51-.05-.64.07-1.32,1.27-2.8,2.39-3.68,4.05-.26.48-.57.99-1,1.31-1.22.93-2.13,2.12-3.04,3.33-1.05,1.4-2.11,2.81-3.3,4.09-3.27,3.5-6.46,7.05-9.21,10.98-.5.71-1.13,1.35-1.77,1.94-2.23,2.06-4.12,4.41-5.96,6.82-.72.95-1.66,1.76-2.25,2.78-.57.99-1.26,1.82-2.06,2.61-1.14,1.12-2.3,2.21-2.98,3.72-.19.42-.57.77-.91,1.1-1.03,1-2.14,1.92-3.1,2.99-1.95,2.17-4.44,3.89-5.67,6.67-.15.35-.5.62-.79.89-1.8,1.7-3.36,3.6-4.9,5.54-1.18,1.49-2.57,2.83-3.93,4.16-2.91,2.84-5.49,6-8.62,8.62-2.88,2.41-3.97,3.1-7.36,4.06-.3.09-.6.23-.85.42-.55.43-1.18.44-1.82.45-.64,0-1.28.03-1.92,0-2.12-.09-4.32.43-6.27-.89-.06-.04-.16-.03-.24-.03-.84.02-1.52-.32-2.18-.83-.81-.63-1.71-1.15-2.57-1.72-.68-.45-1.41-.44-1.96.11-.33.33-.64.72-.85,1.15-.82,1.73-1.61,3.47-2.39,5.22-.54,1.22-1.02,2.47-1.55,3.69-1.05,2.4-2.19,4.77-3.17,7.19-1.29,3.17-2.68,6.29-4.2,9.36-1.24,2.5-2.39,5.05-3.56,7.59-.3.65-.34,1.47-.76,1.99-1.58,1.97-2.31,4.36-3.41,6.57-1.2,2.4-2.08,4.95-3.18,7.41-.65,1.45-1.25,3-2.23,4.22-1.73,2.16-2.59,4.72-3.8,7.12-.79,1.56-1.58,3.12-2.33,4.7-.53,1.13-1.03,2.28-1.45,3.46-.11.31.1.73.21,1.34ZM1154.74,874.12c-.79-.42-1.59-.74-2.49-.77-2.72-.09-5.44-.11-8.03.9-1.06.41-2.16.51-3.29.5-2.8-.02-5.6,0-8.39,0-1.13,0-2.24.06-3.29.49-1.06.43-2.17.48-3.3.47-2.32-.02-4.64.07-6.95-.03-2.39-.1-4.76.44-7.15.09-.3-.04-.63.08-.94.14-.94.19-1.87.44-2.81.57-.78.11-1.62.24-2.37.07-1.55-.35-3.07-.86-4.58-1.35-1.66-.54-2.78-1.82-3.98-3-1.92-1.9-1.99-1.95-4.63-1.75-.54.04-1.15.14-1.58.42-.8.51-1.72.34-2.52.65-.8.31-1.48.92-2.26,1.3-.41.2-.93.17-1.39.31-1.75.53-3.54.97-5.22,1.68-.95.4-1.89.75-2.88,1.05-.98.3-1.86.84-2.94.86-.46,0-.91.27-1.36.41-.45.15-.93.46-1.36.41-1.99-.23-3.6,1.17-5.52,1.21-1.56,1.08-3.53.8-5.22,1.59-.88.41-1.94.43-2.9.92-.87.45-2.04.27-2.86,1.02-1.46.05-2.54,1.26-4.06,1.26-.65,0-1.02.68-.78,1.51.89.4,1.86.24,2.8.24,12.55.01,25.1.01,37.65.01,1.28,0,2.52.03,3.74.6.69.32,1.55.33,2.34.34,2.56.04,5.12,0,7.67.04.71.01,1.5,0,2.1.3,1.29.64,2.62.68,3.98.64,2.89-.09,5.73.18,8.54.85.85.2,1.77.18,2.56.51,1.07.45,2.15.57,3.27.56,1.12-.01,2.24-.07,3.36.02,1.58.13,3.21.19,4.73.61,2.6.71,5.09,1.84,7.85,1.83.23,0,.48.08.69.19,1.02.54,2.1.71,3.24.72.53,0,1.1.19,1.57.45,1.22.67,2.41.64,3.74.11-.03-.51.08-1.05-.12-1.42-.71-1.34-.75-2.75-.71-4.2.02-.96.08-1.93-.01-2.88-.16-1.77.59-3.34,1.33-4.78.85-1.67,1.98-3.28,3.79-4.19.45-.23,1.04-.51.95-1.53ZM881.38,695.56c.28-.13.72-.2.97-.45,1.04-1.04,2.38-1.5,3.66-2.14,1.49-.74,2.96-.5,4.44-.59.88-.05,1.76-.02,2.64,0,.48.02.97.03,1.42.18,1.98.67,3.83,1.61,5.38,3.04.94.86,1.79,1.79,2.14,3.11.19.75.64,1.44,1.03,2.13.14.24.44.46.71.52.42.1.75-.12.95-.54.57-1.22,1.07-2.47,1.74-3.63.92-1.59,1.79-3.19,2.52-4.87.57-1.32,1.14-2.69,2.01-3.8,1.24-1.59,2.13-3.35,3.02-5.13.21-.43.45-.85.72-1.23.89-1.25,1.39-2.69,1.99-4.07.25-.58.51-1.15.75-1.73,1.45-3.46,3.78-6.44,5.36-9.83.16-.36.49-.64.67-.98.52-.98,1.01-1.97,1.5-2.96.21-.42.32-.92.6-1.28,1.81-2.35,2.46-5.33,4.17-7.74.6-.84,1.19-1.69,1.68-2.59,1.02-1.89,1.95-3.82,2.96-5.72,1.53-2.89,3.08-5.76,4.62-8.65,1.53-2.87,3.14-5.69,4.5-8.64.55-1.19,1.46-2.07,2.02-3.22.56-1.14,1.17-2.27,1.92-3.29.61-.84.65-1.73.89-2.84-.48.07-.83.01-1.02.16-.75.6-1.39,1.33-2.17,1.88-2.46,1.73-3.88,4.44-6.12,6.38-.11.1-.2.26-.23.41-.42,1.68-1.82,2.61-3,3.61-1.59,1.35-3.01,2.81-4.27,4.45-1.7,2.2-3.31,4.48-5.44,6.31-.36.31-.7.66-1.01,1.02-.4.49-.74,1.02-1.13,1.52-.38.51-.75,1.03-1.18,1.49-2.33,2.48-5.03,4.64-6.62,7.76-.17.34-.53.59-.81.87-1.07,1.07-2.18,2.12-3.21,3.22-.98,1.05-2.05,2.06-2.8,3.26-1.14,1.83-2.93,3.17-3.78,5.21-.08.2-.32.35-.5.51-2.17,1.99-3.93,4.41-6.33,6.16-.25.19-.49.43-.66.69-.88,1.33-1.81,2.63-2.58,4.02-.59,1.07-1.31,1.99-2.17,2.84-1.14,1.12-2.36,2.18-3.34,3.43-2.02,2.58-4.17,5.04-6.46,7.38-.94.96-1.65,2.14-2.43,3.25-.25.35-.23.75.29,1.13ZM1154.63,602.91c-.29-.09-.56-.22-.84-.27-1.77-.33-3.14,1.02-4.79,1.18-.77.74-1.74.81-2.69.69-2.16-.29-3.96.94-5.97,1.27-.77.75-1.75.66-2.71.68-.72,0-1.43.04-2.03.55-.23.19-.57.3-.87.35-2.53.41-4.91,1.35-7.37,1.98-2.69.69-5.31,1.7-8.03,2.22-1.59.3-3.08.79-4.57,1.33-1.27.46-2.5,1.01-3.76,1.49-.36.14-.79.24-1.17.2-1.85-.22-3.41.75-5,1.35-1.39.52-2.93.65-4.19,1.52-1.49-.1-2.57,1.25-4.08,1.14-.25-.02-.52.32-.79.49-.48.29-.93.65-1.44.85-2.45.96-4.9,1.91-7.38,2.79-2.17.77-4.46,1.26-6.56,2.18-3.19,1.4-6.51,2.49-9.57,4.18-.27.15-.59.35-.87.34-1.32-.06-2.18.78-3.1,1.36-.12,1.06.13,1.84.88,2.46.55.46,1.03,1,1.53,1.52,1.1,1.18,1.93,2.53,2.46,4.05.32.9.62,1.81.89,2.72.37,1.25.46,2.55-.03,3.77-.76,1.91-1.24,3.93-2.37,5.7-.25.39-.36.91.31,1.24.31-.17.63-.44.99-.54,1.66-.45,3.07-1.29,4.26-2.53.27-.28.62-.51.95-.72,2.82-1.79,5.67-3.53,8.29-5.61.24-.19.58-.25.85-.42,1.21-.73,2.64-1.09,3.66-2.17.32-.33.78-.53,1.18-.78,2.79-1.7,5.31-3.83,8.35-5.12,1.45-1.42,3.32-2.15,5.04-3.14,1.23-.71,2.43-1.47,3.7-2.13,1.68-.88,3.45-1.58,4.99-2.72,1.08-.8,2.19-1.67,3.43-2.15,2.25-.88,4.27-2.12,6.32-3.33.4-.24.88-.36,1.31-.55.29-.13.63-.23.82-.45,1.24-1.43,3.18-1.77,4.55-2.99.17-.15.43-.29.65-.28,1.22.07,2.07-.67,3.02-1.25,1.09-.67,2.38-1.05,3.36-1.83,2.16-1.7,4.69-2.69,7.04-4.02.96-.54,2.08-.79,3.06-1.3,2.38-1.23,4.73-2.53,7.09-3.81.55-.3,1.05-.69,1.24-1.49ZM1318.44,494.24c-.49.3-.9.43-1.13.72-.68.88-1.3,1.81-1.93,2.73-.36.53-.6,1.15-1.03,1.6-1.54,1.62-3.03,3.3-5.2,4.14-.51.2-.95.59-1.45.83-1,.47-2,1.02-3.06,1.3-.76.21-1.57.21-2.21.77-1.83.1-3.49.98-5.27,1.16-1.9.19-3.83.06-5.75.03-.46,0-1.02-.06-1.36-.32-.78-.58-1.63-.57-2.51-.61-.71-.03-1.53.06-2.11-.26-1.55-.87-3.31-1.01-4.93-1.63-2.4-.93-4.66-2.07-6.8-3.46-1.53-.99-2.94-2.17-4.46-3.19-1.2-.81-2.34-1.64-2.89-3.07-.14-.36-.42-.69-.7-.97-1.67-1.65-2.56-3.83-3.92-5.7-.36-.5-.51-1.16-.72-1.76-.48-1.43-.91-2.89-1.42-4.31-.62-1.74-.91-3.53-1-5.38-.13-2.73,1.12-5.12,1.8-7.63.5-1.88,1.51-3.63,2.29-5.45-.88-.5-1.66-.46-2.39-.05-2.78,1.54-5.57,3.09-8.03,5.12-.96.79-1.76,1.75-2.43,2.89-1.04,1.75-1.92,3.46-2.02,5.52,0,.15-.1.3-.15.45-.3.92-.6,1.78.11,2.72.29.39.3,1.09.24,1.62-.19,1.85.61,3.47,1.31,5.04,1.03,2.31,2.34,4.5,3.54,6.74.15.28.32.56.52.79,1.82,2.01,3.66,4,5.47,6.01,1.35,1.49,3,2.6,4.51,3.89,2.13,1.82,4.43,3.39,6.67,5.04,3.63,2.66,7.86,4.08,12,5.67,3.04,1.17,6.25,1.81,9.37,2.74,1.74.52,3.43.63,5.18.63,1.92,0,3.84-.02,5.76,0,1.61.02,3.18-.02,4.65-.84.55-.3,1.21-.39,1.83-.57,2.26-.64,4.22-1.75,5.98-3.36,1.91-1.74,2.99-3.94,3.94-6.21.58-1.38,1.01-2.87,1.22-4.35.21-1.41.13-2.88.02-4.31-.12-1.58-.34-3.17-1.56-4.72ZM1085.54,973.63h0c-4.64,0-9.28,0-13.92.01-.71,0-1.6-.13-2.1.22-1.25.88-2.58.68-3.92.73-1.04.04-2.07.06-3.11.14-.18.01-.46.27-.48.44-.03.28.02.73.2.85,1.11.75,2.17,1.61,3.67,1.48.61-.05,1.36-.01,1.85.3.8.51,1.61.61,2.5.66.47.02,1.03.05,1.37.3.77.58,1.61.61,2.49.66.47.03,1.02.06,1.37.32.77.59,1.62.59,2.5.64.55.03,1.16.07,1.61.34.8.49,1.64.58,2.52.6.48,0,1-.03,1.42.15,1.19.5,2.52.55,3.66.99,1.28.5,2.59.74,3.87,1.16,3.62,1.2,7.22,2.46,10.88,3.53,2.04.6,4.23.61,6.26,1.34.07.03.16,0,.24,0,.7.03,1.22-.23,1.58-.86.63-1.1,1.26-2.21,1.97-3.26.44-.65.98-1.25,1.55-1.8,1.51-1.47,3.45-2.24,5.28-3.2,1.56-.82,3.15-.94,4.83-.94,14.16.02,28.31,0,42.47.01.72,0,1.44-.03,2.16.03.47.04,1.02.08,1.36.34.77.61,1.63.58,2.51.59,2.64.01,5.28,0,7.92.03.71,0,1.54-.05,2.1.29,1.12.68,2.28.65,3.47.65,3.52,0,7.04,0,10.56,0,1.04,0,2.03.04,3,.6.56.32,1.38.21,2.08.22.17,0,.43-.24.5-.42.07-.18.02-.55-.12-.64-1.1-.74-2-1.88-3.55-1.72-.3.03-.71,0-.92-.18-.87-.74-1.89-.73-2.94-.78-.45-.02-.9-.26-1.34-.42-.44-.15-.87-.38-1.32-.48-1.6-.37-3.08-1.28-4.81-1.1-.21.02-.47-.12-.66-.26-.84-.62-1.8-.58-2.76-.58-2.8,0-5.6.01-8.4-.03-.78-.01-1.64-.07-2.31-.4-.96-.48-1.77-.63-2.68,0-.71.49-1.59.63-2.27.18-1.25-.82-2.59-.71-3.94-.71-8.16-.01-16.32,0-24.47-.02-1.36,0-2.71-.14-4.07-.13-2.16.01-4.31.08-6.47.15-1.21.04-2.39-.1-3.53-.53-1.64-.61-3.28-.55-4.93.01-.6.21-1.23.46-1.85.46-2.54.02-5.11.38-7.59-.6-.58-.23-1.25-.26-1.88-.28-1.2-.04-2.4-.07-3.6,0-.95.06-1.92.17-2.82.45-1.17.36-2.33.5-3.54.49-4.48-.02-8.96,0-13.44,0ZM1010.04,484.51h0c1.6,0,3.2.01,4.8,0,1.11,0,2.24.12,3.19-.7.21-.18.6-.22.91-.22,1.37.01,2.71-.05,3.85-.95,3.07-.93,5.42-2.8,7.56-5.19,2.17-2.43,2.45-5.26,2.62-8.21-.57-1.79-.41-3.64-.44-5.47-.02-1-.44-1.86-.96-2.67-.36-.57-1.02-.61-1.37-.08-.22.33-.39.69-.59,1.04-.64,1.1-1.26,2.22-1.94,3.3-.6.93-1.32,1.79-1.92,2.72-.65,1.01-1.9,1.13-2.69,1.93-.28.28-.57.56-.87.83-.24.21-.47.48-.75.58-1.92.69-3.64,1.9-5.72,2.15-.3.04-.6.21-.87.36-1.56.88-3.32,1.33-5.02,1.39-3.65.14-7.35.54-10.94-.64-.37-.12-.78-.2-1.17-.21-.89-.02-1.76-.08-2.46-.72-1.48.02-2.62-1.06-4.04-1.25-.52-.07-1-.44-1.53-.57-1.3-.33-2.06-1.52-3.18-2.03-1.86-.84-3.31-2.17-4.92-3.33-1.59-1.15-2.79-2.59-3.74-4.27-.47-.83-.78-1.76-1.34-2.51-1.42-1.89-2.23-4.01-2.89-6.25-1.41-4.8-1.44-5.28.01-10.03.09-.31.2-.61.28-.92.17-.7.36-1.39.47-2.1.11-.69-.56-1.22-1.24-1.01-.3.09-.6.22-.86.4-1.24.87-2.52,1.69-3.68,2.66-.9.76-1.83,1.61-2.42,2.61-1.12,1.9-2.1,3.9-2.96,5.94-.32.75-.4,1.81-.12,2.56.42,1.13.53,2.35.99,3.4,1.13,2.6,2.14,5.27,4.05,7.52,1.86,2.2,3.53,4.52,6.11,5.97.41.23.72.62,1.08.94,1.35,1.22,2.49,2.63,4.27,3.38,1.29.54,2.55,1.37,3.55,2.34,1.13,1.09,2.66,1.03,3.85,1.82.13.09.29.14.43.21,2.18,1.06,6.97,2.75,9.63,3.4.23.06.5.1.66.25.8.72,1.77.6,2.72.66.71.05,1.53,0,2.08.35.89.57,1.8.59,2.75.59,1.6,0,3.2,0,4.8,0ZM1121.01,930.22c1.51.24,2.87.29,4.03,1.07.29.19.78.09,1.18.1.8.02,1.6,0,2.4.02.87.01,1.72,0,2.51.58.4.3,1.05.33,1.59.36,1.2.06,2.4-.02,3.6.06.95.06,1.92.15,2.82.42,1.17.35,2.33.53,3.54.52,1.11-.01,2.19-.01,3.24.62.56.34,1.38.29,2.09.32,1.11.06,2.19.03,3.23.67.56.34,1.39.24,2.1.31.95.08,1.94,0,2.86.22,2.41.55,4.91.65,7.24,1.55.29.11.63.07.94.15,1.39.34,2.78.68,4.16,1.04,2.45.63,4.81,1.53,7.21,2.31.37.12.77.21,1.12.39,1.33.67,2.58,1.55,4.15,1.65.29.02.55.3.83.44,1.99.98,3.99,1.96,5.98,2.95.85.42,1.71.84,2.56,1.28,2.93,1.53,5.95,2.51,9.36,2.46,8.15-.12,16.31-.03,24.47-.04,1.21,0,2.37.06,3.51.59.62.29,1.39.32,2.1.35,3.26.17,6.55-.31,9.8.36.15.03.52-.26.51-.37-.03-.27-.21-.52-.35-.77-.03-.05-.15-.06-.22-.07-1.2-.07-2.37-.16-3.43-.87-.29-.2-.78-.11-1.17-.18-.47-.08-.97-.11-1.39-.31-.89-.41-1.79-.64-2.77-.69-.46-.02-.95-.19-1.37-.4-.89-.44-1.83-.56-2.8-.51-1.56.08-2.97-.4-4.42-.88-1.88-.63-3.82-1.17-5.78-1.45-1.26-.18-2.55-.27-3.76-.64-1.58-.48-3.36-.17-4.8-1.24-.22-.16-.62-.09-.94-.09-.64-.02-1.29-.09-1.92-.01-1.12.13-1.95-.61-2.92-.85-.99-.25-2.18.03-3.04-.4-.99-.5-1.93-.65-2.97-.69-.31-.01-.7-.04-.91-.22-.95-.84-2.08-.7-3.19-.72-1.27-.02-2.54.08-3.7-.7-.41-.28-1.08-.26-1.63-.24-2.18.09-4.08-1.33-6.27-1.16-.07,0-.15-.06-.21-.11-.71-.65-1.59-.73-2.47-.66-1.56.11-3.02-.29-4.43-.88-1.31-.54-2.75-.96-3.86-1.79-2.37-1.76-4.57-3.76-5.69-6.64-.03-.07-.08-.14-.11-.22-.42-1.28-1.34-1.65-2.62-1.56-1.19.08-2.4.02-3.6.03-1.04,0-2.04.02-3,.61-.5.31-1.22.32-1.85.33-1.92.05-3.84,0-5.76.05-.62.02-1.32.09-1.82.41-.74.47-1.49.51-2.29.51-2.08,0-4.16-.01-6.24.03-.71.01-1.52,0-2.09.33-.97.56-1.96.6-3,.6-2.64,0-5.28.03-7.92.01-1.07,0-1.83.41-2.43,1.69ZM1260.02,918.25c-2.17-2.02-2.26-1.66-3.61-1.73-2.14-.11-4.08-1.25-6.25-1.2-.81-.61-1.76-.62-2.72-.76-1-.15-1.94-.66-2.94-.87-.71-.15-1.39-.22-2-.68-.29-.22-.75-.3-1.13-.3-1.22,0-2.38-.17-3.48-.72-.41-.2-.94-.28-1.4-.23-2.77.31-5.28-1.29-8.03-1.11-.29.02-.61-.18-.9-.3-1.57-.65-3.22-.86-4.89-1.02-.79-.08-1.58-.21-2.36-.36-3.05-.59-6.08-1.31-9.19-1.57-.39-.03-.87-.05-1.14-.27-.9-.74-1.94-.61-2.97-.68-.87-.06-1.84.01-2.57-.36-.99-.5-1.97-.57-3.01-.6-.8-.02-1.75.17-2.36-.19-1.65-.98-3.4-.7-5.14-.76-1.57-.06-3.2.27-4.61-.82-.22-.17-.62-.08-.93-.15-.46-.1-.98-.14-1.36-.38-.79-.51-1.64-.57-2.53-.57-1.84,0-3.68,0-5.52-.02-.55,0-1.22.07-1.64-.2-1.31-.86-2.75-.72-4.18-.74-.96-.01-1.86-.04-2.74-.63-.45-.31-1.22-.22-1.83-.19-.44.02-.69.44-.63.87.05.38.19.77.37,1.11,1.04,1.88,2.11,3.75,3.18,5.61.16.27.32.57.56.77.88.73,1.73,1.36,3,.66,1.42-.77,2.91-.65,4.4-.02.65.27,1.39.47,2.08.45,3.23-.11,6.35.69,9.48,1.2,2.85.47,5.68.87,8.56.75,2.82-.11,5.57.31,8.29,1,1.18.3,2.35.44,3.55.44.79,0,1.69-.09,2.36.24,1.52.76,3.1.69,4.69.69,1.76,0,3.52,0,5.28.02.56,0,1.18-.08,1.66.12,1.42.6,2.88.9,4.42.9.22,0,.5.1.66.24.8.72,1.77.64,2.73.64,1.84.01,3.68,0,5.52.03.55,0,1.25-.07,1.63.22,1.15.87,2.42.69,3.68.72,1.04.02,2.08,0,3.12.03.47.02,1.06-.03,1.39.23,1.06.83,2.25.7,3.44.71,2,.01,4,.01,6,0,.55,0,1.09-.09,2.02-.17ZM958.41,694.92c-.56-.04-.87-.16-1.01-.06-1.26.97-2.78,1.51-3.95,2.64-1.29,1.26-2.38,2.82-4.25,3.36-.14.04-.24.21-.35.31-1.43,1.27-2.87,2.52-4.29,3.8-2.72,2.45-5.84,3.84-9.56,3.69-.88-.03-1.76.03-2.63,0-1.1-.05-1.85.52-2.34,1.38-.94,1.65-1.89,3.31-2.67,5.05-.94,2.1-2.18,4.03-3.1,6.15-.62,1.44-1.56,2.77-2.48,4.05-.45.63-.66,1.27-.74,1.97-.03.26.11.67.31.81.21.15.67.19.88.05.8-.52,1.59-1.06,2.28-1.71,1.51-1.41,2.83-3.05,4.8-3.89.14-.06.26-.19.37-.3,1.86-1.85,3.72-3.72,5.59-5.56.74-.72,1.4-1.72,2.3-2.04,1.89-.67,2.64-2.49,4.1-3.55.82-2.17,2.68-3.31,4.48-4.49,1.09-.71,1.95-1.61,2.83-2.55,2.33-2.51,4.61-5.08,7.47-7.04.72-.49,1.36-1.07,1.98-2.09ZM966.83,948.82c-.63.8-1.44,1.53-1.83,2.43-.4.92-.99,1.61-1.66,2.29-.34.34-.68.68-.99,1.04-.35.4-.44.89-.15,1.33.3.46.83.43,1.31.36.23-.03.49-.11.65-.26.73-.66,1.61-.6,2.49-.61,1.2,0,2.4.02,3.6-.04.54-.03,1.19-.06,1.59-.36.79-.58,1.63-.57,2.51-.57,1.28-.01,2.56,0,3.84-.03.39-.01.84-.05,1.14-.25.29-.2.56-.61.6-.96.06-.48-.4-.63-.82-.64-1.28-.02-2.56-.02-3.84-.05-.56-.01-1.21.09-1.65-.16-1.45-.8-3.12-1.21-4.37-2.39-.59-.55-1.22-1.03-2.43-1.16Z"/>
</svg>